<svg xmlns="http://www.w3.org/2000/svg" width="18" height="18" viewBox="0 0 18 18">
    <g fill="#0B62AB" fill-rule="nonzero" stroke="#0B62AB" stroke-width=".4">
        <path d="M13.892 11.057c-.347-.361-.765-.554-1.21-.554-.44 0-.862.19-1.223.55l-1.131 1.128c-.093-.05-.186-.096-.276-.143a4.548 4.548 0 0 1-.354-.19c-1.06-.672-2.022-1.55-2.946-2.684-.447-.565-.748-1.041-.966-1.524.294-.269.566-.548.83-.816l.301-.305c.752-.751.752-1.725 0-2.476l-.977-.977c-.11-.111-.225-.226-.333-.34-.215-.222-.44-.451-.673-.666-.347-.344-.762-.526-1.199-.526-.436 0-.859.182-1.216.526l-.008.007-1.216 1.228a2.618 2.618 0 0 0-.777 1.664C.432 6.004.74 6.977.976 7.614c.58 1.564 1.446 3.014 2.738 4.567a16.842 16.842 0 0 0 5.608 4.392c.823.39 1.922.851 3.15.93.075.004.153.007.225.007.827 0 1.521-.297 2.065-.887.004-.007.01-.011.014-.018.187-.226.401-.43.627-.648.154-.147.311-.3.465-.462.354-.368.54-.798.54-1.238 0-.444-.19-.87-.55-1.228l-1.966-1.972zm1.282 3.77c-.004 0-.004.003 0 0-.14.15-.283.285-.437.436a9.41 9.41 0 0 0-.69.715c-.362.387-.788.57-1.346.57-.054 0-.111 0-.165-.004-1.063-.068-2.05-.483-2.792-.838a15.898 15.898 0 0 1-5.282-4.137c-1.22-1.47-2.037-2.83-2.577-4.29-.333-.892-.454-1.586-.4-2.241.035-.42.196-.766.493-1.063l1.22-1.22c.176-.165.362-.255.545-.255.225 0 .408.136.522.25l.01.011c.22.204.427.416.645.641.111.115.225.23.34.347l.977.977c.38.38.38.73 0 1.11-.104.104-.204.207-.308.308-.3.307-.587.594-.898.873-.007.007-.014.01-.018.018-.308.307-.25.608-.186.812l.01.032c.255.616.613 1.196 1.157 1.886l.003.004c.988 1.217 2.03 2.165 3.178 2.892.147.093.297.168.44.24.13.064.251.125.355.19.014.006.029.017.043.024.122.061.236.09.354.09.297 0 .483-.186.544-.247l1.224-1.224c.122-.122.315-.269.54-.269.222 0 .405.14.516.262l.007.007 1.972 1.972c.369.365.369.74.004 1.12zM9.655 4.587c.938.157 1.79.601 2.47 1.281.68.68 1.12 1.532 1.28 2.47.04.236.244.4.477.4a.484.484 0 0 0 .48-.565 5.52 5.52 0 0 0-1.55-2.989 5.52 5.52 0 0 0-2.989-1.55.486.486 0 0 0-.558.394.478.478 0 0 0 .39.559zM17.428 8.033a9.081 9.081 0 0 0-2.551-4.92A9.081 9.081 0 0 0 9.956.56a.481.481 0 1 0-.158.952 8.132 8.132 0 0 1 4.399 2.28 8.108 8.108 0 0 1 2.28 4.399c.039.236.243.4.475.4a.474.474 0 0 0 .476-.558z"/>
    </g>
</svg>
