<svg xmlns="http://www.w3.org/2000/svg" width="103" height="103" viewBox="0 0 103 103">
    <defs>
        <radialGradient id="a" r="60.59%" fx="50%" fy="50%">
            <stop offset="0%" stop-color="#FFB705" stop-opacity=".385"/>
            <stop offset="100%" stop-color="#373737" stop-opacity="0"/>
        </radialGradient>
    </defs>
    <g fill="none" fill-rule="evenodd">
        <circle cx="51.233" cy="51.233" r="51.233" fill="url(#a)" fill-opacity=".81"/>
        <circle cx="51.663" cy="50.663" r="27.663" opacity=".24"/>
        <g fill="#FFB705" fill-rule="nonzero">
            <path d="M64.999 58.742l.066-5.323a2.41 2.41 0 0 0-.983-1.935l.015-1.71-1.48-.987a1.452 1.452 0 0 0-1.176-1.15l-9.158-10.989a1.804 1.804 0 0 0-3.186 1.154l-3.387 3.35v-1.765h.967v-.968H37v.968h.968v7.742H37v.968h9.677v-.968h-.967v-1.031c.235-.06.46-.16.654-.306l5.066-3.8 4.834 7.09L55.114 51h-3.255l-4.545 2.893a2.407 2.407 0 0 0-1.12 2.04v2.359a3.803 3.803 0 0 0-.484-.034 3.875 3.875 0 0 0-3.871 3.871A3.875 3.875 0 0 0 45.709 66a3.875 3.875 0 0 0 3.587-2.42h10.247A3.875 3.875 0 0 0 63.13 66 3.875 3.875 0 0 0 67 62.129c0-1.456-.81-2.727-2.001-3.387zM61.194 48.58a.485.485 0 1 1-.002.969.485.485 0 0 1 .002-.97zm-22.259-9.194h5.807v.968h-5.807v-.968zm5.807 1.936v.784l-.902.89c-.024.024-.043.054-.066.08v-1.754h.968zm-1.936 0v3.87h-1.935v-3.87h1.935zm-3.87 0h.967v3.87h-.968v-3.87zm5.806 5.806h-5.807v-.968h5.807v.968zm1.04-2.112a.883.883 0 0 1-.527.177H45.139a.882.882 0 0 1-.619-1.508l4.829-4.764c.02.035.038.072.061.106l1.475 2.163-5.102 3.826zm4.428-6.534a.835.835 0 0 1-.145-.47v-.211a.835.835 0 0 1 1.475-.534l8.834 10.6c-.25.172-.44.422-.543.713h-2.737L50.21 38.483zm6.903 11.065h2.718c.2.562.733.968 1.363.968.522 0 .976-.28 1.232-.694l.703.47v.757a2.417 2.417 0 0 0-.484-.049h-6.403l.87-1.452zm-9.952 6.386c0-.033.01-.063.012-.095l.465-.968c.062-.057.123-.116.195-.162l4.308-2.741h10.504c.63 0 1.162.406 1.363.967l.089.968v2.903H47.16v-.872zm-1.451 9.098a2.906 2.906 0 0 1-2.904-2.903 2.906 2.906 0 0 1 2.904-2.903 2.906 2.906 0 0 1 2.903 2.903 2.906 2.906 0 0 1-2.903 2.903zm13.581-2.42h-9.744c.02-.158.034-.319.034-.483 0-.164-.014-.325-.034-.484h9.745c-.02.159-.034.32-.034.484 0 .164.014.325.033.484zM52 60.678v-.483c0-.267.217-.484.484-.484h.484v.967H52zm1.935 0v-.967h.968v.967h-.968zm1.936 0v-.967h.484c.266 0 .484.217.484.484v.483h-.968zm1.935 0v-.483c0-.8-.65-1.452-1.451-1.452h-3.871c-.8 0-1.452.651-1.452 1.452v.483h-1.736a3.888 3.888 0 0 0-2.135-2.134v-.769h16.936v.611a3.848 3.848 0 0 0-.968-.127 3.875 3.875 0 0 0-3.586 2.42h-1.737zm5.323 4.355a2.906 2.906 0 0 1-2.903-2.903 2.906 2.906 0 0 1 2.903-2.903 2.906 2.906 0 0 1 2.903 2.903 2.906 2.906 0 0 1-2.903 2.903z"/>
            <path d="M63.129 60.677c-.8 0-1.452.652-1.452 1.452 0 .8.652 1.452 1.452 1.452.8 0 1.452-.652 1.452-1.452 0-.8-.652-1.452-1.452-1.452zm0 1.936a.485.485 0 1 1 .002-.97.485.485 0 0 1-.002.97zM45.71 60.677c-.8 0-1.452.652-1.452 1.452 0 .8.651 1.452 1.452 1.452.8 0 1.451-.652 1.451-1.452 0-.8-.651-1.452-1.451-1.452zm0 1.936a.485.485 0 1 1 .001-.97.485.485 0 0 1-.001.97zM54.903 54.007h9.954v.968h-9.954z"/>
        </g>
        <circle cx="51.663" cy="50.663" r="35" opacity=".463"/>
    </g>
</svg>
