<svg xmlns="http://www.w3.org/2000/svg" width="103" height="103" viewBox="0 0 103 103">
    <defs>
        <radialGradient id="a" r="60.59%" fx="50%" fy="50%">
            <stop offset="0%" stop-color="#FFB705" stop-opacity=".385"/>
            <stop offset="100%" stop-color="#373737" stop-opacity="0"/>
        </radialGradient>
    </defs>
    <g fill="none" fill-rule="evenodd">
        <circle cx="51.233" cy="51.233" r="51.233" fill="url(#a)" fill-opacity=".81"/>
        <g fill="#FFB705" fill-rule="nonzero">
            <path d="M67.99 51.34a.456.456 0 0 0-.028-.09l-2.007-4.665a2.488 2.488 0 0 0-2.306-1.56h-2.631c-.812 0-1.472.653-1.472 1.455v7.461h-5.072v-1.077c2.249-.233 4.007-2.118 4.007-4.403v-.99c0-2.442-2.008-4.428-4.477-4.428h-5.041v-.526c0-.802-.66-1.455-1.472-1.455h-.5c-.812 0-1.472.653-1.472 1.455v.526h-5.042C38.01 43.043 36 45.03 36 47.471v.99c0 2.285 1.759 4.17 4.008 4.403v1.077H36.47c-.26 0-.47.208-.47.465 0 .256.21.464.47.464h.84a2.912 2.912 0 0 0-.809 2.012c0 1.622 1.334 2.942 2.975 2.942 1.05 0 1.975-.543 2.504-1.358a2.982 2.982 0 0 0 2.505 1.358 2.969 2.969 0 0 0 2.937-2.477h2.104v.03c0 .803.66 1.456 1.472 1.456h3.006c.811 0 1.472-.653 1.472-1.455v-.031h4.107a2.969 2.969 0 0 0 2.938 2.477 2.969 2.969 0 0 0 2.937-2.477h1.571c.536 0 .971-.43.971-.96v-4.952a.457.457 0 0 0-.01-.094zm-.93 3.097h-.532a.033.033 0 0 1-.03-.031v-.496c0-.016.014-.03.03-.03h.533v.557zm-.453-3.963h-3.084c-.57 0-1.034-.459-1.034-1.022v-1.517h3.026l1.092 2.539zm-7.024 5.944h-4.185a1.473 1.473 0 0 0-1.394-.99h-3.006c-.647 0-1.198.415-1.394.99h-2.182a2.92 2.92 0 0 0-.77-1.548h13.702a2.92 2.92 0 0 0-.77 1.548zM46.458 42.517a.53.53 0 0 1 .532-.526h.501a.53.53 0 0 1 .532.526v.526h-1.565v-.526zm-9.519 5.944v-.99c0-1.93 1.588-3.499 3.538-3.499h1.034v1.022c0 .256.21.464.47.464.259 0 .47-.208.47-.464v-1.022h9.58v1.022c0 .256.21.464.47.464s.47-.208.47-.464v-1.022h1.033c1.95 0 3.538 1.57 3.538 3.499v.99c0 1.93-1.587 3.499-3.538 3.499H52.97v-4.985a.467.467 0 0 0-.47-.464c-.26 0-.47.208-.47.464v4.985h-9.58v-4.985a.467.467 0 0 0-.47-.464c-.26 0-.47.208-.47.464v4.985h-1.034c-1.95 0-3.538-1.57-3.538-3.499zm4.008 4.428h12.587v1.052H40.947V52.89zm1.372 1.981a2.965 2.965 0 0 0-.339.43 2.965 2.965 0 0 0-.338-.43h.677zm-2.843 4.025c-1.123 0-2.036-.903-2.036-2.013 0-1.11.913-2.012 2.036-2.012 1.122 0 2.035.903 2.035 2.012 0 1.11-.913 2.013-2.035 2.013zm5.01 0c-1.123 0-2.036-.903-2.036-2.013 0-1.11.913-2.012 2.035-2.012 1.123 0 2.036.903 2.036 2.012 0 1.11-.913 2.013-2.036 2.013zm10.05-1.517a.53.53 0 0 1-.532.526h-3.006a.53.53 0 0 1-.532-.526v-.496a.53.53 0 0 1 .532-.526h3.006a.53.53 0 0 1 .532.526v.496zm7.985 1.517c-1.123 0-2.036-.903-2.036-2.013 0-1.11.913-2.012 2.036-2.012 1.122 0 2.035.903 2.035 2.012 0 1.11-.913 2.013-2.035 2.013zm4.508-2.477h-1.571a2.969 2.969 0 0 0-2.937-2.477h-2.036V46.48a.53.53 0 0 1 .533-.526h2.631a1.543 1.543 0 0 1 1.438.987l.028.065H62.02c-.26 0-.47.208-.47.465v1.981c0 1.075.885 1.95 1.973 1.95h3.484l.054.126v1.422h-.533c-.535 0-.97.431-.97.96v.496c0 .529.435.96.97.96h.533v1.021a.031.031 0 0 1-.032.031z"/>
            <path d="M39.476 55.923c-.536 0-.971.43-.971.96 0 .529.435.96.97.96.536 0 .971-.431.971-.96 0-.53-.435-.96-.97-.96zm.018 1.028a.05.05 0 1 1 0-.1.05.05 0 0 1 0 .1zM44.485 55.923c-.535 0-.97.43-.97.96 0 .529.435.96.97.96.536 0 .971-.431.971-.96 0-.53-.435-.96-.97-.96zm.019 1.028a.05.05 0 1 1 0-.1.05.05 0 0 1 0 .1zM62.52 55.923c-.535 0-.97.43-.97.96 0 .529.435.96.97.96.536 0 .971-.431.971-.96 0-.53-.435-.96-.97-.96zm.02 1.028a.05.05 0 1 1 0-.1.05.05 0 0 1 0 .1z"/>
        </g>
        <circle cx="51.663" cy="50.663" r="27.663" opacity=".24"/>
        <circle cx="51.663" cy="50.663" r="35" opacity=".463"/>
    </g>
</svg>
