<svg xmlns="http://www.w3.org/2000/svg" width="46" height="60" viewBox="0 0 46 60">
    <g fill="#000" fill-rule="nonzero">
        <path stroke="#000" stroke-width=".5" d="M44.776 24.848c-.36-3.67-4.22-13.123-4.84-14.616v-8.18c0-.581-.49-1.052-1.091-1.052H24.256c-.602 0-1.09.47-1.09 1.051v7.781L7.051 18.97C6.801 19.107 1 22.45 1 26.698v27.024c.04.96.354 1.89.905 2.691C2.712 57.591 4.402 59 7.88 59H38.518a7.447 7.447 0 0 0 4.72-1.777 5.022 5.022 0 0 0 1.538-3.827c0-1.052 0-3.26.076-6.004.12-7.256.295-18.212-.076-22.544zm-9.66-21.745h2.638v6.309h-2.638V3.103zm-2.18 0v6.309h-2.77l-.011-6.309h2.78zm-4.95 0v6.309h-2.64l-.01-6.309h2.65zm14.61 44.257c0 2.765-.077 4.974-.077 6.046.105 1.273-.646 2.467-1.864 2.965a6.056 6.056 0 0 1-2.18.494H7.933c-4.503 0-4.688-2.86-4.699-3.154V26.688c0-2.524 3.598-5.12 4.983-5.91l16.355-9.295h13.53c.96 2.366 4.187 10.515 4.449 13.533.349 4.227.174 15.13.043 22.344z"/>
        <path d="M26.293 16.615a1.13 1.13 0 0 0-.513.122L8.206 25.718a1.073 1.073 0 0 0-.485 1.459c.198.38.605.61 1.04.591h17.53c.612 0 1.109-.486 1.109-1.085v-8.98a1.097 1.097 0 0 0-1.107-1.088zM25.18 25.6H13.2l11.982-6.096v6.096zM33.898 32.23H9.902c-1.269.006-2.296.99-2.302 2.203v15.672c.006 1.214 1.033 2.197 2.302 2.203h23.996c1.269-.006 2.296-.989 2.302-2.203V34.443c0-1.218-1.029-2.207-2.302-2.212zm.16 2.213v15.662a.157.157 0 0 1-.16.154H9.902a.157.157 0 0 1-.16-.154V34.443c0-.085.071-.153.16-.153h23.996c.088 0 .16.068.16.153z"/>
    </g>
</svg>
