<svg xmlns="http://www.w3.org/2000/svg" width="103" height="103" viewBox="0 0 103 103">
    <defs>
        <radialGradient id="a" r="60.59%" fx="50%" fy="50%">
            <stop offset="0%" stop-color="#FFB705" stop-opacity=".385"/>
            <stop offset="100%" stop-color="#373737" stop-opacity="0"/>
        </radialGradient>
    </defs>
    <g fill="none" fill-rule="evenodd">
        <circle cx="51.233" cy="51.233" r="51.233" fill="url(#a)" fill-opacity=".81"/>
        <g fill="#FFB705" fill-rule="nonzero">
            <path d="M41.903 61.047a.453.453 0 0 0-.614 0 .496.496 0 0 0-.091.143.407.407 0 0 0 0 .329c.022.052.053.1.09.142.125.124.311.16.472.091a.502.502 0 0 0 .143-.09.503.503 0 0 0 .09-.143.407.407 0 0 0 0-.329.495.495 0 0 0-.09-.143zM60.029 60.957a.32.32 0 0 0-.079.038.692.692 0 0 0-.064.052.445.445 0 0 0-.091.143.433.433 0 0 0-.035.164.36.36 0 0 0 .035.165c.022.052.053.1.09.143.125.123.311.16.472.09a.39.39 0 0 0 .234-.233.431.431 0 0 0 .034-.165.455.455 0 0 0-.125-.307.44.44 0 0 0-.471-.09z"/>
            <path d="M64.824 45.046a.432.432 0 0 0-.739.306v2.595h-3.027v-.865a1.295 1.295 0 0 0-.954-1.245L58.19 38.95a1.302 1.302 0 0 0-1.25-.95h-6.038a1.302 1.302 0 0 0-1.25.95l-1.913 6.887a1.296 1.296 0 0 0-.954 1.245v.865h-.433c-.716.001-1.296.581-1.297 1.298V55.3h-.865v-8.218h.432a.866.866 0 0 0 .865-.865v-3.892a.866.866 0 0 0-.865-.865h-4.757a.866.866 0 0 0-.865.865v15.137a.432.432 0 0 0 .432.432h.54l.164 1.316a2.595 2.595 0 1 0 2.918 0l.167-1.315H58.57l.164 1.315a2.595 2.595 0 1 0 2.918 0l.167-1.315h.536a.432.432 0 0 0 .433-.433v-8.65h1.297v2.595a.432.432 0 1 0 .865 0v-6.055a.432.432 0 0 0-.126-.306zm-14.338-5.864a.435.435 0 0 1 .417-.317h6.037c.194 0 .365.13.417.317l.152.548h-7.175l.152-.548zm-.392 1.413h7.656l1.441 5.19H48.652l1.442-5.19zm-2.443 6.487c0-.239.193-.432.432-.432H59.76c.24 0 .433.193.433.432v2.595a.433.433 0 0 1-.433.433H48.083a.433.433 0 0 1-.432-.433v-2.595zm11.485 3.893l-.868 2.314a.434.434 0 0 1-.404.28H49.98a.434.434 0 0 1-.405-.28l-.868-2.314h10.43zm-19.27-8.65h4.757l.001 3.892h-4.758v-3.892zm0 4.757h3.46V55.3h-3.46v-8.218zm3.46 14.272a1.73 1.73 0 1 1-3.46 0 1.73 1.73 0 0 1 3.46 0zm-2.482-3.46h1.506l-.12.947a2.504 2.504 0 0 0-1.267 0l-.119-.947zm21.079 3.46a1.73 1.73 0 1 1-3.46 0 1.73 1.73 0 0 1 3.46 0zm-2.481-3.46h1.505l-.12.947a2.504 2.504 0 0 0-1.267 0l-.118-.947zm2.48-.864H39.867v-.865h22.057v.865zm0-1.73H45.922v-6.055c0-.24.193-.433.432-.433h.433v.865c.001.593.406 1.11.981 1.254l.998 2.661c.191.506.675.841 1.215.843h7.884a1.303 1.303 0 0 0 1.214-.842l.999-2.662c.575-.144.98-.66.98-1.254v-.865h.866V55.3z"/>
            <path d="M41.163 43.19a.432.432 0 0 0-.432.432v1.298a.432.432 0 1 0 .865 0v-1.298a.432.432 0 0 0-.433-.432zM43.326 43.19a.432.432 0 0 0-.433.432v1.298a.432.432 0 1 0 .865 0v-1.298a.432.432 0 0 0-.432-.432z"/>
        </g>
        <circle cx="51.663" cy="50.663" r="27.663" opacity=".24"/>
        <circle cx="51.663" cy="50.663" r="35" opacity=".463"/>
    </g>
</svg>
