<svg xmlns="http://www.w3.org/2000/svg" width="20" height="18" viewBox="0 0 20 18">
    <g fill="none" fill-rule="nonzero" stroke="#ffffff" stroke-width="1.5">
        <path d="M1 1.75A.25.25 0 0 0 .75 2v8.222c0 .138.112.25.25.25h7.312a.25.25 0 0 0 .25-.25V2a.25.25 0 0 0-.25-.25H1zM1 13.417a.25.25 0 0 0-.25.25V17c0 .138.112.25.25.25h7.312a.25.25 0 0 0 .25-.25v-3.333a.25.25 0 0 0-.25-.25H1zM11.476 17.25a.25.25 0 0 1-.25-.25V1.778a.25.25 0 0 1 .25-.25h7.312a.25.25 0 0 1 .25.25V17a.25.25 0 0 1-.25.25h-7.312z"/>
    </g>
</svg>
