<svg xmlns="http://www.w3.org/2000/svg" width="103" height="103" viewBox="0 0 103 103">
    <defs>
        <radialGradient id="a" r="60.59%" fx="50%" fy="50%">
            <stop offset="0%" stop-color="#FFB705" stop-opacity=".385"/>
            <stop offset="100%" stop-color="#373737" stop-opacity="0"/>
        </radialGradient>
    </defs>
    <g fill="none" fill-rule="evenodd">
        <circle cx="51.233" cy="51.233" r="51.233" fill="url(#a)" fill-opacity=".81"/>
        <g fill="#FFB705" fill-rule="nonzero">
            <path stroke="#FFB705" stroke-width=".4" d="M66.523 54.483a4.795 4.795 0 0 0-.92-.9v-4.66a2.316 2.316 0 0 0-1.97-2.29l-6.464-1.06-.9-1.652.89-.487a.288.288 0 0 0 .119-.39l-.325-.598a.29.29 0 0 0-.394-.117l-2.344 1.242a.288.288 0 0 0-.118.39l.325.598a.29.29 0 0 0 .172.137h.084a.293.293 0 0 0 .138-.034l.891-.487.69 1.26-1.325-.213h-1.27l-.364-1.257a.291.291 0 0 0-.557.156l.315 1.096h-.172l-.364-1.257a.291.291 0 0 0-.557.156l.315 1.096h-3.904v-4.553h11.55c.077 0 .15-.03.205-.084a.286.286 0 0 0 .085-.204v-1.884c0-.076-.03-.15-.085-.203a.292.292 0 0 0-.205-.084H45.787c-.16 0-.29.128-.29.287v6.754H43.69c-.077 0-.151.03-.206.084a.286.286 0 0 0-.085.203v1.403c-3.784.143-6.899 2.991-7.34 6.711-.44 3.72 1.926 7.204 5.574 8.208 3.648 1.004 7.492-.77 9.057-4.182h7.232c.141 2.271 1.89 4.125 4.17 4.422.208.026.417.039.626.039a4.805 4.805 0 0 0 4.309-2.65 4.705 4.705 0 0 0-.504-4.996zM54.821 44.03l-.05-.093 1.783-.974.05.093-1.783.974zm-3.023 1.762h2.29v3.59h-2.29v-3.59zm-5.74-6.997h13.716v1.29H46.058v-1.29zm0 1.865h1.876v4.582h-1.876v-4.582zM43.69 61.554a7.132 7.132 0 0 1-6.317-3.462 6.97 6.97 0 0 1 0-7.144 7.132 7.132 0 0 1 6.317-3.462c.216 0 .433 0 .645.03l.211.028c.138 0 .281.03.419.054l.251.053c.118.025.241.05.36.083l.255.078.335.107.256.103.31.131.251.127.29.15.242.152.27.175.232.17.251.195.217.19.231.214.197.21.212.233.182.224c.064.083.128.166.192.254l.163.243c.059.088.113.175.167.268.054.092.098.17.143.258.044.088.098.185.142.282.045.098.084.18.124.273.039.093.083.195.118.297.034.102.069.19.098.287.03.098.064.205.094.312.03.107.049.2.074.297.024.098 0 .102.03.156h-7.878c-.16 0-.29.129-.29.287v2.22c0 .16.13.288.29.288h7.877c-.025.127-.05.258-.084.38s-.034.141-.054.21a6.55 6.55 0 0 1-.236.666c-1.078 2.66-3.69 4.399-6.587 4.383zM51 55.345h-7.94v-1.65h8.369v1.646l-.428.004zm.134 1.062c0-.058.024-.112.039-.17.015-.059.054-.21.074-.317h.458c.077 0 .15-.03.205-.084a.286.286 0 0 0 .085-.203v-2.226c0-.076-.03-.149-.085-.203a.292.292 0 0 0-.205-.084h-.443c0-.083-.04-.16-.055-.239a6.058 6.058 0 0 0-.069-.302c-.024-.097-.068-.238-.103-.355a4.025 4.025 0 0 0-.093-.287 7.084 7.084 0 0 0-.138-.346c-.05-.112-.074-.18-.114-.268-.039-.088-.113-.224-.167-.336a2.237 2.237 0 0 0-.133-.248c-.05-.078-.133-.22-.207-.331-.073-.112-.093-.151-.142-.224a5.293 5.293 0 0 0-.251-.331c-.09-.108-.094-.127-.143-.19a7.078 7.078 0 0 0-.34-.375l-.098-.107a5.337 5.337 0 0 0-.493-.439l-.147-.117a6.613 6.613 0 0 0-.365-.282l-.216-.117c-.109-.073-.217-.146-.335-.214l-.246-.137c-.109-.058-.217-.121-.33-.175l-.246-.136-.335-.141-.286-.098-.344-.112-.3-.078-.35-.078-.354-.048-.36-.049-.325-.024h-.216V45.79h7.237v3.896c0 .159.13.287.29.287h2.87c.16 0 .29-.128.29-.287v-3.896h.385l1.757.288c.049.039.11.061.172.063.03.004.06.004.09 0l6.517 1.057c.854.136 1.481.868 1.477 1.723v4.305a4.773 4.773 0 0 0-.817-.35h-.05c-.127-.04-.25-.078-.383-.108-.133-.029-.3-.058-.448-.078-2.628-.333-5.032 1.502-5.371 4.1 0 .103 0 .21-.03.322h-7.015c.078-.239.142-.472.202-.706zm15.753 1.51c-.3 2.167-2.243 3.737-4.45 3.596-2.208-.14-3.931-1.944-3.948-4.132v-.22c0-.072 0-.209.024-.316a4.134 4.134 0 0 1 1.93-2.995l.103-.058.237-.131.123-.059.231-.097.128-.049.246-.078.119-.034.334-.073h.04c.123 0 .25-.034.374-.044h.364c.165.002.33.013.492.034.166.02.33.049.493.088l.103.03c.128.033.251.072.374.116l.089.034c.136.053.269.113.399.18h.034a4.169 4.169 0 0 1 2.161 4.198v.01z"/>
            <path stroke="#FFB705" stroke-width=".3" d="M63.042 54.815c-1.415-.149-2.691.848-2.873 2.245-.182 1.396.797 2.68 2.204 2.892.113.007.226.007.34 0 1.371-.014 2.5-1.073 2.586-2.427a2.598 2.598 0 0 0-2.257-2.73v.02zm1.69 2.824a2.033 2.033 0 0 1-2.196 1.75 2.024 2.024 0 0 1-1.863-2.093 2.028 2.028 0 0 1 2.035-1.931 2.07 2.07 0 0 1 .26 0 2.043 2.043 0 0 1 1.356.768 2 2 0 0 1 .407 1.491v.015zM48.8 57.055a.292.292 0 0 0-.394.107c-1.213 2.116-3.714 3.158-6.092 2.537-2.378-.62-4.034-2.747-4.034-5.179 0-2.432 1.656-4.56 4.034-5.18 2.378-.62 4.88.422 6.092 2.538a.291.291 0 1 0 .536.035.285.285 0 0 0-.044-.317c-1.341-2.347-4.114-3.505-6.75-2.819-2.637.686-4.475 3.044-4.475 5.74 0 2.697 1.838 5.055 4.474 5.741 2.637.686 5.41-.471 6.751-2.819a.286.286 0 0 0-.098-.384z"/>
            <path d="M63.077 48.46a.29.29 0 0 0 .281-.265.288.288 0 0 0-.237-.305c-2.319-.365-5.843-.92-6.06-.974a.288.288 0 1 0-.133.56c.305.068 5.509.886 6.1.974l.049.01z"/>
        </g>
        <circle cx="51.663" cy="50.663" r="27.663" opacity=".24"/>
        <circle cx="51.663" cy="50.663" r="35" opacity=".463"/>
    </g>
</svg>
