<?xml version="1.0" encoding="UTF-8"?>
<svg width="34px" height="34px" viewBox="0 0 34 34" version="1.1" xmlns="http://www.w3.org/2000/svg" xmlns:xlink="http://www.w3.org/1999/xlink">
    <!-- Generator: sketchtool 51.2 (57519) - http://www.bohemiancoding.com/sketch -->
    <title>A1173F0D-D0EF-4563-B9BA-05B372B797C7</title>
    <desc>Created with sketchtool.</desc>
    <defs></defs>
    <g id="Flive" stroke="none" stroke-width="1" fill="none" fill-rule="evenodd">
        <g id="Flive---Inside-Project---Home" transform="translate(-300.000000, -214.000000)">
            <g id="Group-7" transform="translate(125.000000, 113.000000)">
                <g id="Group-4" transform="translate(44.000000, 86.000000)">
                    <g id="Group-16" transform="translate(32.000000, 15.000000)">
                        <g id="Group-15" transform="translate(99.000000, 0.000000)">
                            <path d="M16.9995467,0 C7.61106407,0 0,7.61158 0,16.99966 C0,26.38774 7.61106407,34 16.9995467,34 C26.3880293,34 34,26.3881933 34,16.99966 C34,7.61112667 26.3880293,0 16.9995467,0 Z" id="Shape-Copy-3" fill="#FFFFFF" fill-rule="nonzero"></path>
                            <circle id="Oval-3" fill="#252525" cx="17" cy="17" r="4"></circle>
                            <path d="M17,27 C22.5228475,27 27,22.5228475 27,17 C27,11.4771525 22.5228475,7 17,7 C11.4771525,7 7,11.4771525 7,17 C7,22.5228475 11.4771525,27 17,27 Z" id="Oval" stroke="#000000" stroke-width="1.7" stroke-linecap="round" stroke-linejoin="round" stroke-dasharray="3,5"></path>
                        </g>
                    </g>
                </g>
            </g>
        </g>
    </g>
</svg>