<?xml version="1.0" encoding="UTF-8"?>
<svg width="34px" height="34px" viewBox="0 0 34 34" version="1.1" xmlns="http://www.w3.org/2000/svg" xmlns:xlink="http://www.w3.org/1999/xlink">
    <!-- Generator: sketchtool 51.2 (57519) - http://www.bohemiancoding.com/sketch -->
    <title>443CE1D4-67EB-4BC8-92C8-40EDC754CB76</title>
    <desc>Created with sketchtool.</desc>
    <defs></defs>
    <g id="Flive" stroke="none" stroke-width="1" fill="none" fill-rule="evenodd">
        <g id="Flive---Inside-Project---Home" transform="translate(-201.000000, -214.000000)" fill="#FFFFFF" fill-rule="nonzero">
            <g id="Group-7" transform="translate(125.000000, 113.000000)">
                <g id="Group-4" transform="translate(44.000000, 86.000000)">
                    <g id="Group-16" transform="translate(32.000000, 15.000000)">
                        <path d="M16.9995467,0 C26.3880293,0 34,7.61112667 34,16.99966 C34,26.3881933 26.3880293,34 16.9995467,34 C7.61106407,34 0,26.38774 0,16.99966 C0,7.61158 7.61106407,0 16.9995467,0 Z M24.8562623,23.663087 C25.3452131,23.663087 25.7412131,23.2543478 25.7412131,22.7500435 C25.7412131,22.2457391 25.344918,21.837 24.8559672,21.837 L12.9927869,21.837 C12.5038361,21.837 12.107541,22.2457391 12.107541,22.7500435 C12.107541,23.2543478 12.5038361,23.663087 12.9927869,23.663087 L24.8562623,23.663087 Z M24.8562623,17.931913 C25.3452131,17.931913 25.7415082,17.5231739 25.7412131,17.0188696 C25.7412131,16.5145652 25.344918,16.1058261 24.8559672,16.1058261 L12.9927869,16.1058261 C12.5038361,16.1058261 12.107541,16.5145652 12.107541,17.0188696 C12.107541,17.5231739 12.5038361,17.931913 12.9927869,17.931913 L24.8562623,17.931913 Z M24.8562623,12.2007391 C25.3452131,12.2007391 25.7412131,11.792 25.7412131,11.2876957 C25.7412131,10.7833913 25.344918,10.3746522 24.8559672,10.3746522 L12.9927869,10.3746522 C12.5038361,10.3746522 12.107541,10.7833913 12.107541,11.2876957 C12.107541,11.792 12.5038361,12.2007391 12.9927869,12.2007391 L24.8562623,12.2007391 Z M9.18888525,12.5845217 C9.84548844,12.5845217 10.3777705,12.0355255 10.3777705,11.3583043 C10.3777705,10.6810832 9.84548844,10.132087 9.18888525,10.132087 C8.53228206,10.132087 8,10.6810832 8,11.3583043 C8,12.0355255 8.53228206,12.5845217 9.18888525,12.5845217 Z M9.18888525,18.245087 C9.84548844,18.245087 10.3777705,17.6960907 10.3777705,17.0188696 C10.3777705,16.3416484 9.84548844,15.7926522 9.18888525,15.7926522 C8.53228206,15.7926522 8,16.3416484 8,17.0188696 C8,17.6960907 8.53228206,18.245087 9.18888525,18.245087 Z M9.18888525,23.9056522 C9.84548844,23.9056522 10.3777705,23.3566559 10.3777705,22.6794348 C10.3777705,22.0022136 9.84548844,21.4532174 9.18888525,21.4532174 C8.53228206,21.4532174 8,22.0022136 8,22.6794348 C8,23.3566559 8.53228206,23.9056522 9.18888525,23.9056522 Z" id="Shape"></path>
                    </g>
                </g>
            </g>
        </g>
    </g>
</svg>