<?xml version="1.0" encoding="UTF-8"?>
<svg width="34px" height="34px" viewBox="0 0 34 34" version="1.1" xmlns="http://www.w3.org/2000/svg" xmlns:xlink="http://www.w3.org/1999/xlink">
    <!-- Generator: sketchtool 51.2 (57519) - http://www.bohemiancoding.com/sketch -->
    <title>B1E0A151-8FFA-4B12-A5C2-16CECCB78B25</title>
    <desc>Created with sketchtool.</desc>
    <defs></defs>
    <g id="Flive" stroke="none" stroke-width="1" fill="none" fill-rule="evenodd">
        <g id="Flive---Inside-Project---Home" transform="translate(-498.000000, -214.000000)" fill="#FFFFFF" fill-rule="nonzero">
            <g id="Group-7" transform="translate(125.000000, 113.000000)">
                <g id="Group-4" transform="translate(44.000000, 86.000000)">
                    <g id="Group-16" transform="translate(32.000000, 15.000000)">
                        <path d="M313.999547,0 C323.388029,0 331,7.61112667 331,16.99966 C331,26.3881933 323.388029,34 313.999547,34 C304.611064,34 297,26.38774 297,16.99966 C297,7.61158 304.611064,0 313.999547,0 Z M321.389,18.1609168 C321.768925,17.9427757 322,17.56101 322,17.1502731 C322,16.7395362 321.768925,16.357845 321.389,16.1396294 L310.989,10.1815237 C310.588194,9.95168976 310.0829,9.93887983 309.669663,10.1500947 C309.256425,10.3601179 309,10.7587152 309,11.1921674 L309,23.1083789 C309,23.541831 309.256425,23.9404283 309.669663,24.1504515 C309.866125,24.2505477 310.083225,24.3 310.3,24.3 C310.539281,24.3 310.778563,24.2394508 310.989,24.1190225 L321.389,18.1609168 Z" id="Shape-Copy"></path>
                    </g>
                </g>
            </g>
        </g>
    </g>
</svg>