<svg xmlns="http://www.w3.org/2000/svg" width="104" height="104" viewBox="0 0 104 104">
    <defs>
        <radialGradient id="a" r="60.59%" fx="50%" fy="50%">
            <stop offset="0%" stop-color="#FFB705" stop-opacity=".385"/>
            <stop offset="100%" stop-color="#373737" stop-opacity="0"/>
        </radialGradient>
    </defs>
    <g fill="none" fill-rule="evenodd">
        <circle cx="52" cy="52" r="51.233" fill="url(#a)" fill-opacity=".81"/>
        <circle cx="52.663" cy="51.663" r="27.663" opacity=".24"/>
        <g fill="#FFB705" fill-rule="nonzero" opacity=".8">
            <path d="M68.269 44.65l-2.088-6.232a.501.501 0 0 0-.47-.363h-1.044c-.209 0-.366.103-.47.311l-.984 2.285H52.66a.565.565 0 0 0-.365.156l-6.645 6.61a1.528 1.528 0 0 0-1.342 1.543v3.635H39.14c-1.2 0-2.14.987-2.14 2.13v2.544c0 .311.209.52.522.52h7.83v.518h-4.959A3.378 3.378 0 0 0 37 61.683a3.378 3.378 0 0 0 3.393 3.376h16.183a3.378 3.378 0 0 0 3.393-3.376 3.378 3.378 0 0 0-3.393-3.376h-4.96v-.519h1.566c.314 0 .522-.208.522-.52v-1.876a.46.46 0 0 0 .053-.2v-4.05c0-1.247-.627-2.39-1.67-3.117a3.611 3.611 0 0 0-.855-.416l2.733-2.803 8.86-.345 1.256 11.253c-.277.027-.458.226-.458.516v2.078c0 .196.083.351.223.439l-2.781 5.533a.47.47 0 0 0 0 .519c.104.156.313.26.47.26h2.975c1.566 0 2.976-.987 3.445-2.545a3.432 3.432 0 0 0 0-2.285l-.49-1.43c.205-.068.334-.247.334-.491V56.23c0-.311-.209-.519-.522-.519l.992-10.853c.052-.052 0-.156 0-.208zm-3.237-5.557h.313l1.932 5.764-.992 10.854h-1.148l-1.514-13.398 1.41-3.22zm1.723 18.643h-2.088v-.986h2.088v.986zm-16.184-9.22c.395.095.76.28 1.073.535l.067.057.018.016a2.947 2.947 0 0 1 .357.386l.026.035c.136.184.25.389.34.61.019.037.036.076.053.114.1.278.156.572.156.872v3.324l-3.655-1.299c-.626-.26-1.044-.83-1.044-1.506v-3.22h1.932c.23 0 .458.026.677.076zM39.14 53.634h2.037c0 .571-.47 1.038-1.044 1.038h-2.086l.002-.027c.064-.558.527-1.01 1.091-1.011zm19.786 8.049a2.333 2.333 0 0 1-2.35 2.337H40.394a2.333 2.333 0 0 1-2.349-2.337 2.333 2.333 0 0 1 2.35-2.337h16.182a2.333 2.333 0 0 1 2.349 2.337zm-8.353-3.376h-4.176v-.519h4.176v.52zm.522-1.557h-13.05V55.71h2.088a2.089 2.089 0 0 0 2.088-2.077h2.61c.313 0 .522-.208.522-.52V48.96c0-.26.209-.52.522-.52h1.096v3.168c0 1.143.68 2.13 1.723 2.493l3.967 1.427v1.222h-1.566zm2.61-12.983a.475.475 0 0 0-.365.156L50 47.402h-2.872l5.742-5.712h9.896l-.134.311c-.052.104-.052.156-.052.26l.122 1.092-8.996.414zm13.26 18.487c-.314 1.039-1.305 1.766-2.454 1.766h-2.14l2.61-5.193h1.41l.574 1.765a2.997 2.997 0 0 1 0 1.662z"/>
            <path d="M41.176 59.865a.644.644 0 0 0-.1.008 1.758 1.758 0 0 0-.16-.008c-.993 0-1.828.831-1.828 1.818 0 .987.835 1.818 1.827 1.818.055 0 .109-.003.162-.008a.653.653 0 0 0 .1.008h14.616a.542.542 0 0 0 .091-.009c.056.006.113.009.17.009.991 0 1.827-.831 1.827-1.818 0-.987-.836-1.818-1.827-1.818-.055 0-.109.003-.162.008a.653.653 0 0 0-.1-.008H41.177zm-1.044 1.818a.8.8 0 0 1 .783-.779c.39 0 .734.317.778.697l.001.006a.706.706 0 0 1 0 .152v.006a.804.804 0 0 1-.779.697.8.8 0 0 1-.783-.779zm2.61 0c0-.26-.052-.52-.156-.779h11.823a1.765 1.765 0 0 0 0 1.558H42.586c.104-.26.156-.52.156-.779zm14.095 0a.8.8 0 0 1-.783.779.804.804 0 0 1-.779-.697v-.006a.706.706 0 0 1 0-.153.804.804 0 0 1 .779-.702.8.8 0 0 1 .783.779z"/>
        </g>
        <circle cx="52.663" cy="51.663" r="35" opacity=".463"/>
    </g>
</svg>
