<?xml version="1.0" encoding="UTF-8"?>
<svg width="104px" height="104px" viewBox="0 0 104 104" version="1.1" xmlns="http://www.w3.org/2000/svg" xmlns:xlink="http://www.w3.org/1999/xlink">
    <!-- Generator: sketchtool 51.2 (57519) - http://www.bohemiancoding.com/sketch -->
    <title>48738395-B1D8-4357-9FB0-4E79D272F774</title>
    <desc>Created with sketchtool.</desc>
    <defs>
        <radialGradient cx="50%" cy="50%" fx="50%" fy="50%" r="60.5899645%" id="radialGradient-1">
            <stop stop-color="#FFB705" stop-opacity="0.384793931" offset="0%"></stop>
            <stop stop-color="#373737" stop-opacity="0" offset="100%"></stop>
        </radialGradient>
    </defs>
    <g id="Flive" stroke="none" stroke-width="1" fill="none" fill-rule="evenodd">
        <g id="Flive---Inside-Project---Home" transform="translate(-887.000000, -486.000000)">
            <g id="Group-5-Copy-14" transform="translate(887.000000, 486.000000)">
                <g id="Group-9">
                    <g id="Group-30-Copy-4">
                        <g id="Group-29">
                            <circle id="Oval-4-Copy-3" fill-opacity="0.810000002" fill="url(#radialGradient-1)" cx="52" cy="52" r="51.2331082"></circle>
                            <circle id="Oval-4-Copy-2" stroke-opacity="0.698907382" stroke="#FFB705" stroke-width="0.5" opacity="0.239508929" cx="52.6634853" cy="51.6634853" r="27.6634853"></circle>
                            <circle id="Oval-4-Copy-4" stroke-opacity="0.698907382" stroke="#FFB705" stroke-width="0.1" opacity="0.462611607" cx="52.6634853" cy="51.6634853" r="35"></circle>
                        </g>
                    </g>
                </g>
                <g id="loader" opacity="0.800000012" transform="translate(37.000000, 35.000000)" fill="#FFB705" fill-rule="nonzero">
                    <path d="M31.2687737,6.64976106 L29.1807304,0.418082351 C29.1285492,0.210380013 28.9197021,0.0545880449 28.7109161,0.0545880449 L27.6668639,0.0545880449 C27.4580779,0.0545880449 27.3014731,0.158469642 27.1970496,0.36617198 L26.2127029,2.65114113 L15.6604775,2.65114113 C15.5560539,2.65114113 15.3994491,2.7030515 15.2950867,2.80693309 L8.65039506,9.4171376 C7.87532377,9.52010635 7.3082432,10.1531329 7.3082432,10.9600258 L7.3082432,14.5951514 L4.69814324,14.5951514 L2.14028564,14.5951514 C0.939628647,14.5951514 0,15.5818136 0,16.7242677 L0,17.1916436 L0,19.2688496 C0,19.5804335 0.208785975,19.7881359 0.521995524,19.7881359 L8.35223425,19.7881359 L8.35223425,20.3074221 L3.39312384,20.3074221 C1.51386655,20.307483 0,21.8134923 0,23.6829959 C0,25.5524995 1.51386655,27.0585088 3.39312384,27.0585088 L19.5755968,27.0585088 C21.4548541,27.0585088 22.9687207,25.5524995 22.9687207,23.6829959 C22.9687207,21.8134923 21.4548541,20.307483 19.5755968,20.307483 L14.6164252,20.307483 L14.6164252,19.7881967 L16.182473,19.7881967 C16.4956825,19.7881967 16.7044685,19.5804944 16.7044685,19.2689104 L16.7044685,17.3921649 C16.7358506,17.3281442 16.7566497,17.2600461 16.7566497,17.1917045 L16.7566497,13.1411133 C16.7566497,11.8947776 16.1302306,10.7523234 15.0861784,10.025274 C14.820195,9.8489126 14.5352477,9.71034295 14.2316424,9.60883475 L16.9654357,6.80555303 L25.8244332,6.46092416 L27.0813089,17.7142161 C26.8037636,17.7405669 26.6227505,17.9403579 26.6227505,18.2303379 L26.6227505,20.3075439 C26.6227505,20.5039878 26.7058856,20.6589886 26.8456676,20.7468042 L24.0648317,26.279549 C23.9604082,26.435341 23.9604082,26.6430433 24.0648317,26.7988353 C24.1692553,26.9546272 24.3780413,27.0585088 24.5346461,27.0585088 L27.5101368,27.0585088 C29.0761845,27.0585088 30.4856275,26.0718467 30.9554418,24.513927 C31.2164702,23.7868775 31.2164702,22.9560073 30.9554418,22.2289578 L30.4642779,20.798106 C30.670311,20.7314075 30.798837,20.5516382 30.798837,20.3075439 L30.798837,18.2303379 C30.798837,17.918754 30.5900511,17.7110516 30.2768415,17.7110516 L31.2686514,6.85752425 C31.3209549,6.80555303 31.2687737,6.70167143 31.2687737,6.64976106 Z M28.0322546,1.09316059 L28.3454642,1.09316059 L30.2769027,6.8574634 L29.2850928,17.7109908 L28.1366782,17.7109908 L26.6228117,4.31288154 L28.0322546,1.09316059 Z M29.7549072,19.7362863 L27.6668639,19.7362863 L27.6668639,18.7496242 L29.7549072,18.7496242 L29.7549072,19.7362863 Z M13.5713942,10.5155927 C13.9657813,10.6110761 14.3317226,10.7953488 14.6437087,11.0512493 C14.6661595,11.069993 14.6888549,11.0885542 14.710694,11.1079064 C14.7169337,11.1133835 14.7231122,11.1189214 14.729352,11.1244593 C14.8460103,11.2297406 14.9535537,11.3437852 15.0510647,11.4650108 C15.0628712,11.4798598 15.0744942,11.4948913 15.0859949,11.5099836 C15.0948039,11.5214246 15.103307,11.533109 15.1119325,11.5446108 C15.2480441,11.7294921 15.3629284,11.9336039 15.4516915,12.1543294 C15.4709,12.1924863 15.4883957,12.2306432 15.5045456,12.2689217 C15.6049929,12.546913 15.6605386,12.8407878 15.6605386,13.1410525 L15.6605386,16.4645942 L12.0064476,15.1663481 C11.3800285,14.9066745 10.9623954,14.3354778 10.9623954,13.6603388 L10.9623954,10.4406178 L12.8938339,10.4406178 C13.1230519,10.4406787 13.3520864,10.465934 13.5713942,10.5155927 Z M2.13930686,15.6337848 C2.13961273,15.6337848 2.1399186,15.633724 2.14022447,15.633724 L4.17608654,15.633724 C4.17608654,16.2049815 3.70627221,16.6723574 3.13203432,16.6723574 L1.04649917,16.6723574 C1.04686621,16.6633506 1.04717208,16.6542831 1.04778382,16.6453372 C1.11213859,16.0869204 1.57467324,15.6343325 2.13930686,15.6337848 Z M21.9246684,23.6829959 C21.9246684,24.981242 20.8806162,26.0198754 19.5755968,26.0198754 L3.39312384,26.0198754 C2.08810444,26.0198754 1.04405222,24.981242 1.04405222,23.6829959 C1.04405222,22.3847498 2.08810444,21.3461164 3.39312384,21.3461164 L8.87429095,21.3461164 L14.0944297,21.3461164 L19.5755968,21.3461164 C20.8806162,21.3461164 21.9246684,22.3847498 21.9246684,23.6829959 Z M13.5724342,20.307483 L9.39628647,20.307483 L9.39628647,19.7881967 L13.5724342,19.7881967 L13.5724342,20.307483 Z M14.0944297,18.7495633 L8.87429095,18.7495633 L1.04405222,18.7495633 L1.04405222,17.7109908 L3.13209549,17.7109908 C4.28051011,17.7109908 5.22013876,16.776239 5.22013876,15.6337848 L7.83023873,15.6337848 C8.14344828,15.6337848 8.35223425,15.4260825 8.35223425,15.1144985 L8.35223425,10.9600258 C8.35223425,10.7003522 8.56102023,10.4407395 8.87422977,10.4407395 L9.9704632,10.4407395 L9.9704632,13.6084892 C9.9704632,14.7509434 10.6490635,15.7376664 11.6931157,16.1011607 L15.6604775,17.5276309 L15.6604775,18.7495633 L14.0944297,18.7495633 Z M16.7045297,5.76691962 C16.5479249,5.76691962 16.4435013,5.81882999 16.3391389,5.92271159 L12.9982575,9.40204525 L12.9460763,9.40204525 L12.8938951,9.40204525 L10.4925199,9.40204525 L10.1271291,9.40204525 L15.8693246,3.68965282 L25.7652782,3.68965282 L25.631063,4.00123675 C25.5788818,4.10511835 25.5788818,4.15702872 25.5788818,4.26091032 L25.7008622,5.35303635 L16.7045297,5.76691962 Z M29.9636931,24.2542534 C29.6504836,25.2928868 28.6586737,26.0198754 27.5101979,26.0198754 L25.3699735,26.0198754 L27.9800734,20.8268301 L29.3895164,20.8268301 L29.9637543,22.5924521 C30.1202979,23.1637096 30.1202979,23.7349063 29.9636931,24.2542534 Z" id="Shape"></path>
                    <path d="M4.17614771,21.8654027 C4.14164572,21.8654027 4.10867308,21.8683238 4.07692391,21.8732531 C4.02351923,21.8683238 3.96962517,21.8654027 3.91518054,21.8654027 C2.92337069,21.8654027 2.08810444,22.6962729 2.08810444,23.6829959 C2.08810444,24.6696581 2.92330952,25.5005892 3.91518054,25.5005892 C3.96962517,25.5005892 4.02351923,25.4976681 4.07692391,25.4927387 C4.10873425,25.4976072 4.1417069,25.5005892 4.17614771,25.5005892 L18.7925729,25.5005892 C18.8243833,25.5005892 18.8548478,25.4972421 18.8843947,25.492191 C18.9401852,25.4975463 18.9965874,25.5005892 19.0536013,25.5005892 C20.0454111,25.5005892 20.8806774,24.6697189 20.8806774,23.6829959 C20.8806774,22.6963337 20.0454723,21.8654027 19.0536013,21.8654027 C18.9991567,21.8654027 18.9452626,21.8683238 18.8918579,21.8732531 C18.8600476,21.8683846 18.8270749,21.8654027 18.7926341,21.8654027 L4.17614771,21.8654027 Z M3.13209549,23.6829959 C3.13209549,23.2675304 3.49748624,22.9040361 3.91511936,22.9040361 C4.30510196,22.9040361 4.64932659,23.2210971 4.69324934,23.6013877 C4.69349403,23.603396 4.69386107,23.6053434 4.6940446,23.6073516 C4.69673624,23.6323635 4.69814324,23.657558 4.69814324,23.6829959 C4.69814324,23.7084338 4.69667507,23.7336892 4.6940446,23.7586402 C4.69386107,23.7606485 4.69343286,23.7625959 4.69324934,23.7646041 C4.64938777,24.1448948 4.30516313,24.4619558 3.91511936,24.4619558 C3.49748624,24.4619558 3.13209549,24.0984614 3.13209549,23.6829959 Z M5.74219546,23.6829959 C5.74219546,23.4233223 5.69001426,23.1637096 5.58559068,22.9040361 L17.4089453,22.9040361 C17.2924093,23.1414971 17.2265864,23.4061 17.2265864,23.6829959 C17.2265864,23.9598918 17.2924093,24.2244947 17.4089453,24.4619558 L5.58559068,24.4619558 C5.68995308,24.2022822 5.74219546,23.9426695 5.74219546,23.6829959 Z M19.8366252,23.6829959 C19.8366252,24.0984614 19.4712344,24.4619558 19.0536013,24.4619558 C18.6636187,24.4619558 18.3193941,24.1448948 18.2754713,23.7646041 C18.2752266,23.7625959 18.2748596,23.7606485 18.2746761,23.7586402 C18.2719844,23.7336283 18.2705774,23.7084338 18.2705774,23.6829959 C18.2705774,23.657132 18.2719844,23.6314507 18.2747372,23.6060128 C18.2747372,23.6057085 18.2747984,23.6054651 18.2748596,23.6051608 C18.3168248,23.2231662 18.6622729,22.9039752 19.0536013,22.9039752 C19.4711732,22.9040361 19.8366252,23.2675304 19.8366252,23.6829959 Z" id="Shape"></path>
                </g>
            </g>
        </g>
    </g>
</svg>