<svg xmlns="http://www.w3.org/2000/svg" width="13" height="14" viewBox="0 0 13 14">
    <g fill="#0B62AB" fill-rule="nonzero">
        <path d="M12.443.864H7.986a.545.545 0 0 0-.557.531c0 .294.249.532.557.532h3.112L5.363 7.401a.515.515 0 0 0 0 .752.57.57 0 0 0 .394.156.57.57 0 0 0 .394-.156l5.735-5.474V5.65c0 .294.25.532.557.532A.545.545 0 0 0 13 5.65V1.395a.545.545 0 0 0-.557-.531z"/>
        <path d="M9.822 6.655a.565.565 0 0 0-.578.551v4.964H1.156V4.448h5.2c.319 0 .577-.246.577-.551a.565.565 0 0 0-.577-.552H.578A.565.565 0 0 0 0 3.897v8.824c0 .305.259.552.578.552h9.244c.32 0 .578-.247.578-.552V7.206a.565.565 0 0 0-.578-.551z"/>
    </g>
</svg>
