<svg xmlns="http://www.w3.org/2000/svg" width="103" height="103" viewBox="0 0 103 103">
    <defs>
        <radialGradient id="a" r="60.59%" fx="50%" fy="50%">
            <stop offset="0%" stop-color="#FFB705" stop-opacity=".385"/>
            <stop offset="100%" stop-color="#373737" stop-opacity="0"/>
        </radialGradient>
    </defs>
    <g fill="none" fill-rule="evenodd">
        <circle cx="51.233" cy="51.233" r="51.233" fill="url(#a)" fill-opacity=".81"/>
        <g fill="#FFB705" fill-rule="nonzero">
            <path d="M43.419 52.093c-.602 0-1.092.482-1.092 1.074 0 .593.49 1.075 1.092 1.075.602 0 1.092-.482 1.092-1.075 0-.592-.49-1.074-1.092-1.074zm.015 1.14a.05.05 0 1 1 0-.1.05.05 0 0 1 0 .1zM49.055 52.093c-.602 0-1.092.482-1.092 1.074 0 .593.49 1.075 1.092 1.075.602 0 1.092-.482 1.092-1.075 0-.592-.49-1.074-1.092-1.074zm.015 1.14a.05.05 0 1 1 0-.1.05.05 0 0 1 0 .1zM65.963 52.093c-.602 0-1.092.482-1.092 1.074 0 .593.49 1.075 1.092 1.075.602 0 1.092-.482 1.092-1.075 0-.592-.49-1.074-1.092-1.074zm.015 1.14a.05.05 0 1 1 0-.1.05.05 0 0 1 0 .1z"/>
            <path d="M70.845 55.018l-.409-.402v-1.449a.514.514 0 0 0-.105-.312l-3.382-4.437a.534.534 0 0 0-.74-.104.515.515 0 0 0-.105.728l.718.943a3.385 3.385 0 0 0-.787-.11l-8.166-2.008a3.403 3.403 0 0 0-.395-.072v-.729a.524.524 0 0 0-.529-.52.524.524 0 0 0-.528.52v.764c-.14.027-.28.063-.417.108l-4.726 1.55v-.475c.37-.222.648-.583.752-1.026l1.394-5.947h.707a.524.524 0 0 0 .529-.52.524.524 0 0 0-.529-.52h-6.763c-.913 0-1.656.731-1.656 1.63v1.698h-1.726c-.602 0-1.092.482-1.092 1.074v1.144h-.634V43.09c0-.435-.172-.845-.485-1.152l-.797-.785a.534.534 0 0 0-.747 0 .514.514 0 0 0 0 .736l.797.784a.58.58 0 0 1 .176.417v3.457h-4.544c-.603 0-1.092.482-1.092 1.075v2.253h-.036a.524.524 0 0 0-.528.52v.774c0 .77.533 1.424 1.296 1.59l3.805.832c.212 1.617 1.618 2.87 3.318 2.87a3.359 3.359 0 0 0 2.818-1.52 3.359 3.359 0 0 0 2.818 1.52c1.845 0 3.346-1.477 3.346-3.293 0-.243-.028-.48-.079-.708l4.012-1.316c.027-.01.055-.016.083-.024v1.528h-.599c-.913 0-1.656.731-1.656 1.63 0 .898.743 1.629 1.656 1.629h2.254a.524.524 0 0 0 .529-.52.524.524 0 0 0-.529-.52h-.598v-3.801c.046.009.093.018.14.03l5.107 1.256a3.239 3.239 0 0 0-.105.816c0 1.816 1.502 3.293 3.347 3.293 1.818 0 3.302-1.435 3.344-3.215l.073.095v1.491c0 .138.055.27.154.368l.564.554a.531.531 0 0 0 .747 0 .514.514 0 0 0 0-.735zm-24.08-12.389c0-.325.269-.589.599-.589h4.972l-1.34 5.713a.594.594 0 0 1-.584.457h-.829V43.74a.524.524 0 0 0-.528-.52.524.524 0 0 0-.529.52v4.471h-1.76v-5.58zm-2.818 2.773c0-.019.016-.034.035-.034h1.726v2.842h-1.726a.035.035 0 0 1-.035-.035V45.402zm-7.327 2.219c0-.02.016-.035.036-.035h6.234v.59c0 .592.49 1.074 1.092 1.074H50.217v.584l-.12.04H36.62v-2.253zm9.998 3.293a3.322 3.322 0 0 0-.381.48 3.322 3.322 0 0 0-.381-.48h.762zm-10.561.254v-.254h4.925c-.423.443-.723 1-.847 1.619l-3.61-.79a.588.588 0 0 1-.468-.575zm7.362 4.252c-1.263 0-2.29-1.01-2.29-2.253 0-1.242 1.027-2.253 2.29-2.253 1.262 0 2.29 1.01 2.29 2.253s-1.028 2.253-2.29 2.253zm5.636 0c-1.263 0-2.29-1.01-2.29-2.253 0-1.242 1.027-2.253 2.29-2.253 1.262 0 2.29 1.01 2.29 2.253s-1.028 2.253-2.29 2.253zm7.362-.554h-.599a.595.595 0 0 1-.599-.59c0-.325.269-.589.599-.589h.599v1.179zm1.452-4.78a3.393 3.393 0 0 0-1.87.07l-4.066 1.334a3.332 3.332 0 0 0-.726-.842.506.506 0 0 0 .025-.05l5.102-1.674a2.321 2.321 0 0 1 1.28-.048l6.444 1.585c-.36.247-.668.56-.907.924l-5.282-1.3zm8.094 5.334c-1.263 0-2.29-1.01-2.29-2.253 0-.34.077-.662.215-.951l.008-.019a2.295 2.295 0 0 1 2.067-1.283c1.262 0 2.29 1.01 2.29 2.253s-1.028 2.253-2.29 2.253z"/>
        </g>
        <circle cx="51.663" cy="50.663" r="27.663" opacity=".24"/>
        <circle cx="51.663" cy="50.663" r="35" opacity=".463"/>
    </g>
</svg>
