<svg xmlns="http://www.w3.org/2000/svg" width="15" height="15" viewBox="0 0 15 15">
    <g fill="#262626" fill-rule="nonzero" opacity=".9">
        <path d="M2.143 14.156s-.013.344.313.344l3.767-.005.006-3.175s-.053-.524.44-.524h1.564c.584 0 .548.524.548.524l-.007 3.165h3.688c.414 0 .395-.428.395-.428V8.203L7.66 3.447 2.143 8.203v5.953z"/>
        <path d="M0 7.469s.47.9 1.496 0l6.127-5.38 5.745 5.346c1.187.889 1.632 0 1.632 0L7.623.5 0 7.469zM13.571 1.974h-1.428l.006 1.737 1.422 1.21z"/>
    </g>
</svg>
