<svg xmlns="http://www.w3.org/2000/svg" width="103" height="103" viewBox="0 0 103 103">
    <defs>
        <radialGradient id="a" r="60.59%" fx="50%" fy="50%">
            <stop offset="0%" stop-color="#FFB705" stop-opacity=".385"/>
            <stop offset="100%" stop-color="#373737" stop-opacity="0"/>
        </radialGradient>
    </defs>
    <g fill="none" fill-rule="evenodd">
        <circle cx="51.233" cy="51.233" r="51.233" fill="url(#a)" fill-opacity=".81"/>
        <g fill="#FFB705" fill-rule="nonzero">
            <path d="M42.933 59.313c-.883 0-1.6.71-1.6 1.585 0 .876.717 1.586 1.6 1.586.884 0 1.6-.71 1.6-1.586 0-.875-.716-1.585-1.6-1.585zm0 2.114a.53.53 0 0 1-.533-.529.53.53 0 0 1 .533-.528.53.53 0 0 1 .534.528.53.53 0 0 1-.534.529zM61.067 59.313c-.884 0-1.6.71-1.6 1.585 0 .876.716 1.586 1.6 1.586.883 0 1.6-.71 1.6-1.586 0-.875-.717-1.585-1.6-1.585zm0 2.114a.53.53 0 0 1-.534-.529.53.53 0 0 1 .534-.528.53.53 0 0 1 .533.528.53.53 0 0 1-.533.529z"/>
            <path d="M67.935 52.719l-3.2-5.813a.534.534 0 0 0-.468-.275h-6.4a.53.53 0 0 0-.534.528v7.927H53.6v-1.057h1.6a.53.53 0 0 0 .533-.529v-4.227a.526.526 0 0 0-.156-.373l-2.667-2.643a.536.536 0 0 0-.377-.154H50.56l10.507-6.94v2.712a.53.53 0 0 0 .533.529c.59 0 1.067.473 1.067 1.057 0 .583-.478 1.056-1.067 1.056-.59 0-1.067-.473-1.067-1.056h-1.066c0 1.167.955 2.113 2.133 2.113a2.124 2.124 0 0 0 2.133-2.113c0-.964-.658-1.806-1.6-2.047v-3.238h-.01a.511.511 0 0 0-.079-.293l-1.066-1.585a.536.536 0 0 0-.72-.159L39.99 48.293a.524.524 0 0 0-.254.452h-.004V53.5a.53.53 0 0 0 .534.529h.533v1.057h-4.267a.53.53 0 0 0-.533.528v3.7a.53.53 0 0 0 .533.527h2.824c-.592 1.957.529 4.02 2.504 4.606 1.975.587 4.056-.524 4.648-2.48.21-.694.21-1.432 0-2.125h10.982c-.593 1.956.528 4.018 2.503 4.605 1.975.587 4.056-.524 4.649-2.48.21-.694.21-1.432 0-2.125h2.824a.53.53 0 0 0 .533-.529v-6.34a.525.525 0 0 0-.065-.254zm-7.402-5.031h3.417l2.91 5.284h-6.327v-5.284zm-9.066-.529h.846l2.354 2.333v1.366h-3.2V47.16zm-.534 4.756h3.734v1.057h-5.334V47.16H50.4v4.228a.53.53 0 0 0 .533.528zm1.6 2.114v1.057H41.867v-1.057h10.666zm-4.266-5.813h-.907l.907-.598v.598zm12.106-10.91l.488.724L45.44 48.216h-3.262l18.195-10.91zM40.8 49.273h7.467v3.7H40.8v-3.7zm2.133 14.267c-1.472 0-2.666-1.183-2.666-2.642 0-1.459 1.194-2.642 2.666-2.642 1.473 0 2.667 1.183 2.667 2.642-.002 1.459-1.195 2.64-2.667 2.642zm15.074-4.755H45.993a3.747 3.747 0 0 0-6.119 0h-2.807v-2.642h23.466a3.205 3.205 0 0 1 2.95 1.94 3.746 3.746 0 0 0-5.476.702zm3.06 4.755c-1.473 0-2.667-1.183-2.667-2.642 0-1.459 1.194-2.642 2.667-2.642 1.472 0 2.666 1.183 2.666 2.642-.001 1.459-1.194 2.64-2.666 2.642zm5.866-4.755h-2.166c-.009-.067-.023-.132-.035-.199-.009-.052-.016-.105-.026-.153a4.002 4.002 0 0 0-.07-.264c-.01-.042-.02-.085-.033-.126a4.03 4.03 0 0 0-.138-.37l-.012-.026a4.522 4.522 0 0 0-.16-.331c-.023-.043-.05-.082-.074-.123-.042-.072-.084-.145-.131-.212-.03-.045-.065-.089-.097-.133-.044-.061-.09-.123-.137-.182-.037-.045-.076-.087-.114-.13-.048-.053-.097-.11-.148-.162l-.127-.123a7.884 7.884 0 0 0-.16-.144 4.795 4.795 0 0 0-.462-.341 4.123 4.123 0 0 0-.546-.294c-.053-.024-.107-.05-.16-.071-.07-.029-.143-.053-.213-.079-.054-.018-.107-.038-.164-.052-.077-.024-.156-.042-.236-.06-.053-.013-.106-.028-.16-.038-.089-.018-.18-.03-.27-.041-.046-.006-.091-.015-.138-.02a4.402 4.402 0 0 0-.42-.02H58.4v-7.403h1.067V53.5a.53.53 0 0 0 .533.529h6.933v4.756z"/>
        </g>
        <circle cx="51.663" cy="50.663" r="27.663" opacity=".24"/>
        <circle cx="51.663" cy="50.663" r="35" opacity=".463"/>
    </g>
</svg>
