<?xml version="1.0" encoding="UTF-8"?>
<svg width="50px" height="50px" viewBox="0 0 512 512" version="1.1" xmlns="http://www.w3.org/2000/svg" xmlns:xlink="http://www.w3.org/1999/xlink">
    <!-- Generator: Sketch 50.2 (55047) - http://www.bohemiancoding.com/sketch -->
    <title>t2 #252525 yellow</title>
    <desc>Created with Sketch.</desc>
    <defs></defs>
    <g id="t2-#252525-yellow" stroke="none" stroke-width="1" fill="none" fill-rule="evenodd">
        <g id="Group">
            <rect id="Rectangle" fill="#FFBC22" x="0" y="0" width="512" height="512" rx="80"></rect>
            <g id="Logo" transform="translate(53.333333, 53.333333)" fill="#252525">
                <path d="M376.355897,239.396103 L343.753846,247.541744 C342.514462,251.330051 334.403897,265.621949 334.403897,265.621949 L314.429538,251.641846 C314.429538,251.641846 318.938872,242.716718 319.913231,239.739077 L324.227692,226.554051 L370.74359,214.939692 C373.292513,214.351179 375.299692,213.298872 376.36759,212.534974 L376.562462,190.265026 C376.098667,189.384205 373.916103,187.762872 371.109949,187.244513 L324.742154,176.951385 L320.404308,163.096 C318.467282,156.875692 315.859897,150.604718 312.441846,143.912821 L306.108513,131.518974 L330.939077,90.1632821 C332.310974,87.9651282 332.996923,85.8137436 333.219077,84.5081026 L316.75241,68.5052308 C315.123282,68.5052308 313.310974,69.1522051 311.619487,70.3019487 L271.179692,96.0678974 L258.341538,89.3954872 C252.082256,86.1450256 245.64759,83.448 239.240205,81.3784615 L225.579692,76.9626667 L215.044923,29.3632821 C214.713641,27.5470769 213.096205,25.3606154 213.267692,25.1033846 L189.941538,25.1033846 C189.165949,26.1946667 188.098051,28.2875897 187.43159,31.1872821 L175.988718,76.9665641 L162.651692,81.2147692 C155.761026,83.4051282 148.917128,86.2853333 142.303179,89.769641 L129.414359,96.5706667 L87.3454359,69.7485128 C86.4802051,69.1522051 84.6795897,68.5052308 83.081641,67.9907692 L66.5837949,84.4847179 C66.8059487,85.8020513 67.5347692,88.0430769 69.1093333,90.5686154 L94.5011282,132.879179 L88.3977436,145.17559 C85.2057436,151.621949 82.7932308,157.491487 81.0237949,163.127179 L76.6742564,176.959179 L29.3476923,187.439385 C27.6250256,187.751179 25.5671795,189.22441 25.1462564,189.22441 C25.1228718,189.22441 25.1033846,189.216615 25.0916923,189.208821 L25.0916923,212.538872 C26.1829744,213.310564 28.2758974,214.390154 31.1716923,215.048821 L77.2393846,226.569641 L81.5460513,239.762462 C83.3037949,245.152615 85.5565128,250.593436 88.4250256,256.377231 L94.5245128,268.665846 L68.8637949,311.428513 C67.4918974,313.618872 66.8098462,315.762462 66.5915897,317.060308 L83.0465641,333.078769 C84.6873846,333.078769 86.4918974,332.427897 88.1794872,331.285949 L129.484513,304.958769 L142.381128,311.76759 C149.065231,315.298667 155.940308,318.190564 162.823179,320.357538 L176.191385,324.597949 L187.73559,370.786462 C188.316308,373.323692 189.364718,375.334769 190.132513,376.398769 L212.710359,376.398769 C213.622359,375.677744 214.959179,373.670564 215.438564,371.16841 L225.778462,324.465436 L239.446769,320.037949 C242.412718,319.079179 248.336821,316.764103 248.336821,316.764103 L264.503385,335.522462 C264.503385,335.522462 251.154667,342.631385 247.16759,343.917538 L239.926154,376.597538 C237.770872,388.554872 227.317949,401.494359 213.462564,401.494359 L188.374769,401.494359 C174.515487,401.494359 166.026872,388.356103 163.283077,376.398769 L155.254359,344.287795 C146.69559,341.579077 138.495385,338.086974 130.669333,333.95959 L101.660718,352.449026 C91.6754872,359.370872 75.1347692,361.13641 65.3483077,351.334359 L47.5954872,333.593231 C37.8090256,323.787282 41.0906667,308.497641 47.5954872,298.107077 L65.9485128,267.527795 C62.7565128,261.093128 59.9464615,254.455795 57.6898462,247.541744 L25.0916923,239.396103 C13.134359,236.652308 0,228.159795 0,214.30441 L0,189.208821 C0,175.353436 12.9355897,164.900513 24.8929231,162.745231 L57.0857436,155.601231 C59.4358974,148.114256 62.4875897,140.954667 65.9251282,134.025026 L47.5954872,103.476923 C41.0828718,93.0785641 37.8012308,77.7889231 47.5954872,67.9868718 L65.3405128,50.2457436 C75.1347692,40.4514872 91.6754872,42.2053333 101.652923,49.1349744 L130.603077,67.577641 C138.378462,63.4775385 146.535795,60.0127179 155.04,57.304 L163.088205,25.1033846 C165.832,13.1460513 174.320615,0.0116923077 188.176,0.0116923077 L213.267692,0.0116923077 C227.123077,0.0116923077 237.576,12.9511795 239.731282,24.9085128 L246.957128,57.4988718 C254.923487,60.0711795 262.578051,63.3255385 269.905231,67.1294359 L298.142154,49.1349744 C308.127385,42.2053333 324.668103,40.4514872 334.458462,50.2457436 L352.207385,67.9868718 C361.997744,77.7889231 358.716103,93.0785641 352.207385,103.476923 L334.785846,132.501128 C338.558564,139.890667 341.844103,147.568615 344.354051,155.601231 L376.550769,162.745231 C388.508103,164.900513 401.443692,175.353436 401.443692,189.208821 L401.443692,214.30441 C401.443692,228.159795 388.313231,236.652308 376.355897,239.396103 Z M200.893333,276.145026 C159.233641,276.145026 125.333744,242.319179 125.333744,200.749128 C125.333744,159.179077 159.233641,125.353231 200.893333,125.353231 C242.553026,125.353231 276.452923,159.179077 276.452923,200.749128 C276.452923,216.814359 271.351179,231.686974 262.733949,243.932718 L350.379487,333.523077 L332.404513,351.498051 L245.955487,261.124308 C233.358974,270.513231 217.788718,276.145026 200.893333,276.145026 Z M200.721846,150.561846 C173.050051,150.561846 150.542359,173.073436 150.542359,200.749128 C150.542359,228.424821 173.050051,250.932513 200.721846,250.932513 C228.393641,250.932513 250.905231,228.424821 250.905231,200.749128 C250.905231,173.073436 228.393641,150.561846 200.721846,150.561846 Z" id="Shape"></path>
            </g>
        </g>
    </g>
</svg>