<svg xmlns="http://www.w3.org/2000/svg" width="103" height="103" viewBox="0 0 103 103">
    <defs>
        <radialGradient id="a" r="60.59%" fx="50%" fy="50%">
            <stop offset="0%" stop-color="#FFB705" stop-opacity=".385"/>
            <stop offset="100%" stop-color="#373737" stop-opacity="0"/>
        </radialGradient>
    </defs>
    <g fill="none" fill-rule="evenodd">
        <circle cx="51.233" cy="51.233" r="51.233" fill="url(#a)" fill-opacity=".81"/>
        <path fill="#FFB705" fill-rule="nonzero" d="M66.998 54.534v-2.366c0-.052-.002-.103-.005-.154a.466.466 0 0 0-.027-.237 2.443 2.443 0 0 0-.541-1.177l-1.74-2.068a1.473 1.473 0 0 0-1.13-.524H57.98v-4.582c0-.389-.153-.755-.43-1.03l-.709-.702a.473.473 0 0 0-.664 0 .462.462 0 0 0 0 .658l.708.702c.1.1.156.232.156.372v3.624a2.476 2.476 0 0 0-1.534-.53h-1.534v-4.528h.532c.26 0 .47-.208.47-.465a.467.467 0 0 0-.47-.465h-10.02c-.26 0-.47.208-.47.465s.21.465.47.465h.533v4c0 .804.66 1.457 1.471 1.457h.032v4.086c0 .389.153.755.43 1.03l1.911 1.892h-.87c-.366 0-.7.133-.958.353a1.469 1.469 0 0 0-.96-.353h-1.119v-.03a.467.467 0 0 0-.47-.466h-3.507c-.259 0-.47.208-.47.465v.529l-.03-.002h-1.002a.53.53 0 0 1-.533-.527.467.467 0 0 0-.47-.465h-1.001a.967.967 0 0 0-.971.961v2.633a.96.96 0 0 0-.501.84v1.489c0 .257.21.465.47.465h8.516c.26 0 .47-.208.47-.465v-1.489a.96.96 0 0 0-.501-.84v-2.167h1.12c.141 0 .275.054.376.154l.097.096c-.018.09-.027.182-.027.277v1.984c0 .53.435.961.97.961h.59c.21.854.99 1.489 1.915 1.489h13.026c.925 0 1.704-.635 1.915-1.489h2.092c.536 0 .971-.43.971-.96v-1.985a1.46 1.46 0 0 0-1.002-1.381zm-29.526.357h.609c.196.577.747.993 1.395.993h1.001l.032-.002v1.552H37.44v-2.512c0-.017.014-.03.032-.03zm7.045 4.528h-7.578v-1.024c0-.017.014-.03.032-.03h5.51c.26 0 .47-.209.47-.466a.467.467 0 0 0-.47-.465h-1.033v-2.543h2.568V57.9c0 .257.21.465.47.465.017 0 .03.014.03.031v1.024zm19.446-10.291l1.74 2.067c.074.088.136.185.188.286h-5.374c-.26 0-.47.208-.47.465s.21.465.47.465h5.542v2.046H57.98v-2.046h.533c.26 0 .47-.208.47-.465a.467.467 0 0 0-.47-.465h-.533v-2.512-.031h5.574c.159 0 .308.07.41.19zm-18.006-3.136v-4h7.076v6.016h-2.86a.53.53 0 0 1-.494-.332l-.349-.864a.47.47 0 0 0-.436-.293h-2.405a.53.53 0 0 1-.532-.527zm2.619 1.458l.231.572c.225.556.761.916 1.366.916h3.33c.26 0 .47-.208.47-.465V47.45h1.534c.846 0 1.534.681 1.534 1.519v.527H47.46V47.45h1.116zm-.96 4.457a.521.521 0 0 1-.156-.372v-1.109h9.581v4.031h-6.85l-2.575-2.55zM47.46 57.9v-1.358l.701.695c.05.05.11.086.174.108a1.933 1.933 0 0 0-.255.586h-.589a.031.031 0 0 1-.031-.03zm15.562 1.52H49.996a1.03 1.03 0 0 1-1.033-1.024 1.03 1.03 0 0 1 1.033-1.023h13.026c.57 0 1.033.46 1.033 1.023a1.03 1.03 0 0 1-1.033 1.024zm4.039-1.52a.031.031 0 0 1-.032.031h-2.092a1.972 1.972 0 0 0-1.915-1.488H49.996c-.39 0-.755.113-1.061.308a.462.462 0 0 0-.11-.172l-1.118-1.107a.532.532 0 0 1 .285-.083h18.536a.53.53 0 0 1 .533.527v1.984z"/>
        <circle cx="51.663" cy="50.663" r="27.663" opacity=".24"/>
        <circle cx="51.663" cy="50.663" r="35" opacity=".463"/>
    </g>
</svg>
