<svg xmlns="http://www.w3.org/2000/svg" width="32" height="41" viewBox="0 0 32 41">
    <g fill="none" fill-rule="nonzero">
        <path fill="#E9E9E0" d="M22.535 0H1.428C.84 0 .364.48.364 1.41v38.858c0 .252.476.732 1.064.732h29.144c.588 0 1.064-.48 1.064-.732V9.502c0-.51-.067-.674-.187-.795L22.987.188A.64.64 0 0 0 22.535 0z"/>
        <path fill="#D9D7CA" d="M22.91.11v8.676h8.617z"/>
        <path fill="#0B62AB" d="M9.828 24.398c-.253 0-.496-.083-.703-.239-.757-.572-.859-1.208-.81-1.641.132-1.192 1.596-2.44 4.352-3.71 1.094-2.414 2.134-5.387 2.755-7.871-.726-1.59-1.431-3.654-.917-4.864.18-.424.405-.749.824-.89.166-.055.585-.125.74-.125.366 0 .688.475.916.768.215.275.702.858-.27 4.98.98 2.038 2.369 4.114 3.7 5.536.953-.173 1.773-.262 2.442-.262 1.139 0 1.829.267 2.11.818.233.455.138.988-.283 1.581-.405.57-.964.872-1.615.872-.884 0-1.914-.562-3.062-1.673a34.681 34.681 0 0 0-6.42 2.066c-.609 1.3-1.191 2.345-1.734 3.113-.745 1.05-1.388 1.54-2.025 1.54zm1.936-3.753c-1.554.88-2.187 1.602-2.233 2.009-.007.067-.027.244.313.507.109-.035.741-.325 1.92-2.516zm9.918-3.252c.593.459.738.69 1.125.69.17 0 .656-.006.88-.322.109-.153.15-.251.168-.304-.09-.047-.208-.144-.855-.144-.367 0-.83.017-1.318.08zm-5.433-4.82a52.429 52.429 0 0 1-1.944 5.539 36.162 36.162 0 0 1 4.724-1.48c-.982-1.147-1.963-2.58-2.78-4.058zm-.441-6.195c-.071.025-.967 1.287.07 2.355.69-1.548-.039-2.365-.07-2.355zM30.572 41H1.428C.84 41 .364 40.52.364 39.929V28.554h31.272v11.375c0 .591-.476 1.071-1.064 1.071z"/>
        <g fill="#FFF">
            <path d="M8.28 38.804H7.087v-7.378h2.107c.311 0 .62.05.925.15.304.1.578.251.82.45.242.2.438.443.587.726.149.284.224.602.224.957 0 .374-.063.712-.19 1.016-.125.304-.301.56-.527.766a2.372 2.372 0 0 1-.815.48c-.318.113-.67.17-1.054.17H8.28v2.663h.001zm0-6.467v2.923h1.094c.145 0 .29-.025.433-.075.142-.05.273-.132.392-.246a1.2 1.2 0 0 0 .288-.475 2.265 2.265 0 0 0 .06-1.17 1.202 1.202 0 0 0-.204-.45 1.207 1.207 0 0 0-.432-.361c-.186-.097-.432-.145-.736-.145H8.28zM19.068 34.91c0 .607-.064 1.126-.194 1.557-.13.43-.293.79-.492 1.08-.2.292-.423.52-.671.687a3.359 3.359 0 0 1-.721.376 2.961 2.961 0 0 1-.637.16 4.21 4.21 0 0 1-.427.034h-2.774v-7.377h2.207c.617 0 1.159.098 1.626.295.467.196.855.459 1.163.785.309.327.539.7.691 1.116.153.417.23.846.23 1.287zm-3.54 3.013c.81 0 1.393-.26 1.75-.78.358-.521.537-1.275.537-2.263 0-.307-.036-.61-.109-.91a1.953 1.953 0 0 0-.422-.816 2.23 2.23 0 0 0-.85-.591c-.358-.15-.822-.226-1.393-.226h-.696v5.586h1.184zM22.012 32.337v2.323h3.062v.82h-3.062v3.324h-1.213v-7.377h4.583v.91z"/>
        </g>
    </g>
</svg>
