<svg xmlns="http://www.w3.org/2000/svg" width="19" height="19" viewBox="0 0 19 19">
    <g fill="#0B62AB" fill-rule="nonzero" stroke="#0B62AB" stroke-width=".3">
        <path d="M9.777 10.529c2.603 0 4.714-2.134 4.714-4.765s-2.111-4.75-4.714-4.75-4.714 2.133-4.714 4.75c0 2.616 2.111 4.765 4.714 4.765zm0-8.273c1.909 0 3.47 1.578 3.47 3.508s-1.561 3.508-3.47 3.508c-1.909 0-3.47-1.579-3.47-3.508 0-1.93 1.561-3.508 3.47-3.508zM1.622 17.969H17.99a.62.62 0 0 0 .622-.629c0-3.288-2.646-5.978-5.914-5.978H6.914C3.661 11.362 1 14.037 1 17.34c0 .351.275.629.622.629zm5.292-5.35h5.784c2.371 0 4.323 1.783 4.627 4.093H2.287c.304-2.295 2.256-4.093 4.627-4.093z"/>
    </g>
</svg>
