<svg xmlns="http://www.w3.org/2000/svg" width="64" height="64" viewBox="0 0 64 64">
    <g fill="none" fill-rule="evenodd">
        <g transform="translate(-1 -1)">
            <circle cx="33" cy="33" r="32.007" fill="#DCB656" opacity=".2"/>
            <circle cx="33.173" cy="33.124" r="26.434" fill="#DCB656" opacity=".2"/>
            <circle cx="33.148" cy="33.099" r="20.242" fill="#DCB656" opacity=".2"/>
            <circle cx="33.596" cy="33" r="14.904" fill="#FFF"/>
        </g>
        <g fill="#DCB656" fill-rule="nonzero" stroke="#DCB656" stroke-width=".6">
            <path d="M39.382 31.762c-.204 0-.34.151-.34.378v4.924c0 .227-.135.379-.339.379H26.49c-.203 0-.34-.152-.34-.38V32.14c0-.227-.135-.378-.338-.378-.204 0-.34.151-.34.378v4.924c0 .644.441 1.136 1.018 1.136h12.214c.577 0 1.018-.492 1.018-1.136V32.14c0-.227-.136-.378-.34-.378z"/>
            <path d="M39.16 27.47H26.033c-.588 0-1.037.557-1.037 1.287v1.674c0 .6.346 1.116.795 1.245l5.423 1.502v1.374c0 .257.139.429.346.429h2.072c.208 0 .346-.172.346-.43v-1.373l5.423-1.502c.45-.13.795-.644.795-1.245v-1.674c0-.73-.45-1.288-1.036-1.288zm-5.873 6.652h-1.382v-1.717h1.382v1.717zm6.218-3.691c0 .215-.104.386-.276.43l-5.251 1.459v-.344c0-.257-.138-.43-.346-.43H31.56c-.207 0-.346.173-.346.43v.344l-5.25-1.46c-.173-.043-.277-.214-.277-.429v-1.674c0-.258.138-.43.346-.43H39.16c.207 0 .345.172.345.43v1.674z"/>
            <path d="M34.377 25.323h-3.562c-.606 0-1.069.558-1.069 1.288v.429c0 .258.143.43.356.43.214 0 .357-.172.357-.43v-.43c0-.257.142-.428.356-.428h3.562c.214 0 .357.171.357.429v.429c0 .258.142.43.356.43s.356-.172.356-.43v-.43c0-.729-.463-1.287-1.069-1.287z"/>
        </g>
    </g>
</svg>
