<svg xmlns="http://www.w3.org/2000/svg" width="90" height="90" viewBox="0 0 90 90">
    <g fill="none" fill-rule="evenodd">
        <circle cx="45" cy="45" r="44.615" fill="#DCB656" opacity=".2"/>
        <circle cx="45.241" cy="45.172" r="36.847" fill="#DCB656" opacity=".2"/>
        <circle cx="45.207" cy="45.138" r="28.216" fill="#DCB656" opacity=".2"/>
        <circle cx="45.831" cy="45" r="20.775" fill="#FFF"/>
        <g fill="#DCB656" fill-rule="nonzero" stroke="#DCB656" stroke-width=".84">
            <path d="M55.29 44.668c-.284 0-.473.21-.473.528v6.863c0 .316-.19.528-.473.528H37.318c-.284 0-.473-.212-.473-.528v-6.863c0-.317-.189-.528-.473-.528-.283 0-.472.21-.472.528v6.863c0 .897.614 1.583 1.418 1.583h17.026c.804 0 1.418-.686 1.418-1.583v-6.863c0-.317-.189-.528-.472-.528z"/>
            <path d="M54.98 38.684H36.682c-.819 0-1.445.778-1.445 1.795v2.334c0 .837.482 1.555 1.108 1.735l7.56 2.094v1.915c0 .359.193.598.481.598h2.89c.289 0 .481-.24.481-.598v-1.915l7.56-2.094c.626-.18 1.108-.898 1.108-1.735v-2.334c0-1.017-.626-1.795-1.445-1.795zm-8.186 9.274h-1.926v-2.393h1.926v2.393zm8.668-5.145c0 .299-.145.538-.386.598l-7.319 2.034v-.478c0-.36-.193-.599-.481-.599h-2.89c-.288 0-.481.24-.481.599v.478l-7.32-2.034c-.24-.06-.385-.299-.385-.598v-2.334c0-.359.193-.598.482-.598H54.98c.289 0 .482.24.482.598v2.334zM48.314 35.693h-4.966c-.844 0-1.49.778-1.49 1.795v.598c0 .36.2.598.497.598.298 0 .497-.239.497-.598v-.598c0-.36.198-.599.496-.599h4.966c.298 0 .496.24.496.599v.598c0 .36.2.598.497.598.298 0 .497-.239.497-.598v-.598c0-1.017-.646-1.795-1.49-1.795z"/>
        </g>
    </g>
</svg>
