<svg xmlns="http://www.w3.org/2000/svg" width="103" height="103" viewBox="0 0 103 103">
    <defs>
        <radialGradient id="a" r="60.59%" fx="50%" fy="50%">
            <stop offset="0%" stop-color="#FFB705" stop-opacity=".385"/>
            <stop offset="100%" stop-color="#373737" stop-opacity="0"/>
        </radialGradient>
    </defs>
    <g fill="none" fill-rule="evenodd">
        <circle cx="51.233" cy="51.233" r="51.233" fill="url(#a)" fill-opacity=".81"/>
        <g fill="#FFB705" fill-rule="nonzero">
            <path d="M40.477 57.388c-.259 0-.47.209-.47.466a.531.531 0 0 1-.531.529.531.531 0 0 1-.533-.529c0-.291.239-.529.533-.529.259 0 .47-.208.47-.466a.468.468 0 0 0-.47-.466c-.812 0-1.472.655-1.472 1.461s.66 1.462 1.472 1.462c.811 0 1.471-.656 1.471-1.462a.468.468 0 0 0-.47-.466zM46.49 57.388c-.26 0-.47.209-.47.466a.531.531 0 0 1-.533.529.531.531 0 0 1-.532-.529c0-.291.239-.529.532-.529.26 0 .47-.208.47-.466a.468.468 0 0 0-.47-.466c-.811 0-1.471.655-1.471 1.461s.66 1.462 1.471 1.462c.812 0 1.472-.656 1.472-1.462a.468.468 0 0 0-.47-.466zM62.52 57.388c-.259 0-.47.209-.47.466a.531.531 0 0 1-.531.529.531.531 0 0 1-.533-.529c0-.291.24-.529.533-.529.259 0 .47-.208.47-.466a.468.468 0 0 0-.47-.466c-.812 0-1.472.655-1.472 1.461s.66 1.462 1.472 1.462c.811 0 1.471-.656 1.471-1.462a.468.468 0 0 0-.47-.466z"/>
            <path d="M67.992 50.803a.664.664 0 0 0-.02-.072l-2.014-5.203a2.488 2.488 0 0 0-2.309-1.575h-4.134c-.812 0-1.472.656-1.472 1.462v.324l-1.807-2.19a1.342 1.342 0 0 0-.584-.412l-8.535-3.034a1.349 1.349 0 0 0-.657-.06l-5.861.914-.83-.295a1.476 1.476 0 0 0-1.882.883l-1.35 3.748c-.133.368-.113.764.055 1.117.097.204 2.236 1.453 2.408 1.59l3.64 4.342L47.656 54H36v.88h1.713A3.449 3.449 0 0 0 36 57.855c0 1.904 1.56 3.452 3.476 3.452a3.481 3.481 0 0 0 3.005-1.722 3.481 3.481 0 0 0 3.006 1.722 3.472 3.472 0 0 0 3.443-2.985h.596c0 .837.66 1.492 1.472 1.492h3.006c.811 0 1.472-.655 1.472-1.461l2.6-.031a3.472 3.472 0 0 0 3.443 2.985 3.472 3.472 0 0 0 3.443-2.99c.014.002.703.003 2.067.005.536 0 .971-.433.971-.964v-6.469a.951.951 0 0 0-.008-.085zM67.06 54.9h-.533a.033.033 0 0 1-.03-.031v-.498c0-.016.014-.031.03-.031h.533v.56zm-.407-4.976H62.02a1.03 1.03 0 0 1-1.034-1.026v-2.022h4.488l1.18 3.048zm-9.713 3.53l1.102-3.057v4.005h-1.88c.347-.2.63-.535.778-.948zm.966-6.409c.09.11.137.262.136.427a.947.947 0 0 1-.056.311l-1.93 5.357c-.098.27-.307.475-.534.52l-3.136.62 2.4-6.66a.466.466 0 0 0-.284-.596.47.47 0 0 0-.6.282l-2.478 6.874a.463.463 0 0 0-.026.129l-8.114-2.884a.463.463 0 0 0 .063-.117l2.477-6.873a.466.466 0 0 0-.284-.597.47.47 0 0 0-.6.282l-2.414 6.696-3.463-3.862 1.838-5.1 5.15-.802-.46 1.274a.466.466 0 0 0 .442.624.47.47 0 0 0 .442-.31l.567-1.572 8.077 2.871-.566 1.573a.466.466 0 0 0 .442.624.47.47 0 0 0 .442-.31l.445-1.233 2.024 2.452zm-20.486-1.438l1.35-3.747a.533.533 0 0 1 .68-.32l.502.178-1.71 4.743-.5-.178a.527.527 0 0 1-.322-.676zm5.694 9.728a3.48 3.48 0 0 0-.634.79 3.478 3.478 0 0 0-.633-.79h1.267zm-3.64 5.038a2.53 2.53 0 0 1-2.536-2.519 2.53 2.53 0 0 1 2.537-2.519 2.53 2.53 0 0 1 2.536 2.52 2.53 2.53 0 0 1-2.536 2.518zm6.012 0a2.53 2.53 0 0 1-2.536-2.519 2.53 2.53 0 0 1 2.536-2.519 2.53 2.53 0 0 1 2.536 2.52 2.53 2.53 0 0 1-2.536 2.518zm9.05-2.021a.531.531 0 0 1-.533.528h-3.006a.531.531 0 0 1-.532-.528v-.995c0-.292.239-.53.532-.53h3.006c.293 0 .532.238.532.53v.995zm-.533-2.457h-3.006c-.811 0-1.472.656-1.472 1.462v.03h-.596a3.439 3.439 0 0 0-1.07-2.052h11.286c-.57.53-.96 1.248-1.07 2.053h-2.6v-.031c0-.806-.66-1.462-1.472-1.462zm7.515 4.478a2.53 2.53 0 0 1-2.537-2.519 2.53 2.53 0 0 1 2.537-2.519 2.53 2.53 0 0 1 2.536 2.52 2.53 2.53 0 0 1-2.536 2.518zm5.51-2.985h-2.004a.472.472 0 0 0-.063.004 3.472 3.472 0 0 0-3.443-2.99h-2.537V47.44v-2.025c0-.292.24-.529.533-.529h4.134c.63 0 1.206.393 1.432.977l.031.08h-4.595c-.26 0-.47.21-.47.467v2.488c0 1.08.885 1.959 1.973 1.959h4.995l.046.118v2.432h-.533a.968.968 0 0 0-.97.964v.498c0 .531.435.964.97.964h.533v1.524a.031.031 0 0 1-.032.03z"/>
            <path d="M51.499 57.388a.472.472 0 0 0-.47.466.467.467 0 0 0 .47.467.467.467 0 0 0 .332-.796.473.473 0 0 0-.332-.137z"/>
        </g>
        <circle cx="51.663" cy="50.663" r="27.663" opacity=".24"/>
        <circle cx="51.663" cy="50.663" r="35" opacity=".463"/>
    </g>
</svg>
