<svg xmlns="http://www.w3.org/2000/svg" width="60" height="60" viewBox="0 0 60 60">
    <g fill="#000" fill-rule="nonzero" stroke="#000" stroke-width=".5">
        <path d="M56.014 23.556h-5.426c-.872 0-1.59-.48-1.925-1.286a2.027 2.027 0 0 1 .451-2.27l3.837-3.836a2.968 2.968 0 0 0 .874-2.112 2.97 2.97 0 0 0-.874-2.113l-4.89-4.89c-1.128-1.128-3.095-1.13-4.225 0l-3.835 3.836c-.617.615-1.467.787-2.27.452a2.025 2.025 0 0 1-1.287-1.925V3.986A2.99 2.99 0 0 0 33.46 1H26.54a2.99 2.99 0 0 0-2.985 2.986v5.426c0 .872-.48 1.59-1.286 1.925-.804.336-1.654.163-2.27-.452l-3.836-3.836c-1.13-1.13-3.097-1.128-4.225 0l-4.89 4.89a2.969 2.969 0 0 0-.874 2.113c0 .797.31 1.547.874 2.112l3.837 3.835c.615.617.784 1.465.45 2.27a2.024 2.024 0 0 1-1.924 1.287H3.986A2.99 2.99 0 0 0 1 26.54v6.916a2.99 2.99 0 0 0 2.986 2.987h5.426c.872 0 1.59.48 1.925 1.286a2.027 2.027 0 0 1-.451 2.27l-3.837 3.836a2.968 2.968 0 0 0-.874 2.112c0 .798.31 1.548.874 2.113l4.89 4.89c1.13 1.129 3.095 1.13 4.225 0l3.835-3.837a2.026 2.026 0 0 1 2.27-.45 2.025 2.025 0 0 1 1.287 1.924v5.426A2.99 2.99 0 0 0 26.54 59h6.916a2.99 2.99 0 0 0 2.986-2.986v-5.426c0-.872.48-1.59 1.286-1.925.807-.335 1.654-.164 2.27.451l3.836 3.837c1.13 1.13 3.097 1.128 4.224 0l4.89-4.89a2.969 2.969 0 0 0 .875-2.113 2.97 2.97 0 0 0-.874-2.112l-3.837-3.835a2.029 2.029 0 0 1-.451-2.27c.333-.806 1.054-1.287 1.926-1.287h5.426A2.99 2.99 0 0 0 59 33.46V26.54a2.99 2.99 0 0 0-2.986-2.985zm.838 9.903a.839.839 0 0 1-.838.837h-5.426c-1.744 0-3.243 1.001-3.91 2.612a4.164 4.164 0 0 0 .917 4.613l3.837 3.835a.838.838 0 0 1 0 1.186l-4.89 4.89a.838.838 0 0 1-1.186 0l-3.835-3.837c-1.235-1.234-3.001-1.583-4.613-.917-1.61.667-2.612 2.166-2.612 3.91v5.426a.839.839 0 0 1-.837.838H26.54a.839.839 0 0 1-.837-.838v-5.426c0-1.744-1.001-3.243-2.612-3.91a4.28 4.28 0 0 0-1.647-.334c-1.09 0-2.145.43-2.966 1.25l-3.835 3.837a.838.838 0 0 1-1.186 0l-4.89-4.89a.838.838 0 0 1 0-1.186l3.837-3.836c1.233-1.233 1.585-3 .917-4.612-.667-1.61-2.166-2.61-3.91-2.61H3.986a.839.839 0 0 1-.838-.838V26.54c0-.461.376-.837.838-.837h5.426c1.744 0 3.243-1.001 3.91-2.612a4.164 4.164 0 0 0-.917-4.613l-3.837-3.835a.838.838 0 0 1 0-1.186l4.89-4.89a.838.838 0 0 1 1.186 0l3.835 3.835a4.167 4.167 0 0 0 4.613.918c1.61-.666 2.612-2.165 2.612-3.909V3.986c0-.462.376-.838.837-.838h6.916a.84.84 0 0 1 .84.838v5.426c0 1.744 1 3.243 2.611 3.91 1.614.668 3.38.316 4.613-.917l3.835-3.836a.838.838 0 0 1 1.186 0l4.89 4.89a.838.838 0 0 1 0 1.186l-3.837 3.836c-1.233 1.233-1.585 3-.917 4.612.667 1.61 2.166 2.612 3.91 2.612h5.426a.837.837 0 0 1 .838.836v6.918z"/>
        <path d="M30 20.333c-5.33 0-9.667 4.336-9.667 9.667 0 5.33 4.336 9.667 9.667 9.667 5.33 0 9.667-4.336 9.667-9.667 0-5.33-4.336-9.667-9.667-9.667zm0 17.186c-4.145 0-7.519-3.374-7.519-7.519s3.374-7.519 7.519-7.519 7.519 3.374 7.519 7.519-3.374 7.519-7.519 7.519z"/>
    </g>
</svg>
