<svg xmlns="http://www.w3.org/2000/svg" width="21" height="20" viewBox="0 0 21 20">
    <g fill="#FFF" fill-rule="nonzero" stroke="#FFF" stroke-width=".4">
        <path d="M19.016 8.168l-1.332-.227a7.526 7.526 0 0 0-.536-1.293l.785-1.098a1.17 1.17 0 0 0-.127-1.512l-1.182-1.182a1.164 1.164 0 0 0-1.507-.127l-1.103.786a7.447 7.447 0 0 0-1.34-.552l-.222-1.317a1.172 1.172 0 0 0-1.159-.98h-1.67c-.575 0-1.063.413-1.158.98l-.23 1.35a7.34 7.34 0 0 0-1.29.543l-1.09-.786a1.164 1.164 0 0 0-.682-.218c-.314 0-.611.123-.83.345L3.159 4.062a1.174 1.174 0 0 0-.127 1.511l.793 1.115a7.35 7.35 0 0 0-.527 1.297l-1.317.222C1.413 8.302 1 8.79 1 9.365v1.67c0 .576.413 1.063.98 1.159l1.348.23c.14.444.322.876.544 1.289L3.09 14.8a1.17 1.17 0 0 0 .127 1.511L4.4 17.493a1.164 1.164 0 0 0 1.508.127l1.114-.793c.4.21.821.38 1.254.515l.222 1.333c.095.567.583.98 1.158.98h1.674c.575 0 1.063-.413 1.158-.98l.226-1.333c.449-.139.88-.317 1.293-.535l1.1.785c.198.143.436.218.681.218.314 0 .607-.123.83-.345l1.182-1.182c.404-.404.46-1.043.126-1.511l-.785-1.103c.218-.416.4-.849.536-1.293l1.332-.222c.568-.095.98-.583.98-1.158v-1.67a1.158 1.158 0 0 0-.972-1.158zm-.09 2.828a.103.103 0 0 1-.088.103l-1.666.278a.533.533 0 0 0-.429.392 6.35 6.35 0 0 1-.69 1.662.536.536 0 0 0 .024.583l.98 1.38c.028.04.024.1-.012.136l-1.182 1.182a.1.1 0 0 1-.076.031.097.097 0 0 1-.059-.02l-1.376-.98a.536.536 0 0 0-.584-.023 6.35 6.35 0 0 1-1.662.69.526.526 0 0 0-.392.429l-.282 1.665a.103.103 0 0 1-.103.088h-1.67a.103.103 0 0 1-.103-.088l-.278-1.665a.533.533 0 0 0-.392-.429 6.593 6.593 0 0 1-1.627-.666.55.55 0 0 0-.27-.072.522.522 0 0 0-.309.1l-1.388.987a.118.118 0 0 1-.06.02.106.106 0 0 1-.075-.032l-1.182-1.182a.108.108 0 0 1-.012-.135l.976-1.368a.543.543 0 0 0 .024-.587 6.29 6.29 0 0 1-.698-1.658.543.543 0 0 0-.429-.393l-1.678-.285a.103.103 0 0 1-.087-.104v-1.67c0-.051.036-.095.087-.103l1.654-.277c.21-.036.381-.19.433-.397a6.343 6.343 0 0 1 .678-1.666.53.53 0 0 0-.028-.58l-.987-1.387a.108.108 0 0 1 .011-.135l1.182-1.182a.1.1 0 0 1 .076-.032c.024 0 .043.008.06.02l1.368.976c.174.123.404.13.587.023a6.29 6.29 0 0 1 1.658-.698.543.543 0 0 0 .393-.428l.285-1.678a.103.103 0 0 1 .103-.087h1.67c.052 0 .095.035.103.087l.278 1.654c.036.21.19.38.397.432.599.151 1.17.385 1.701.699.183.107.409.099.583-.024l1.369-.984c.02-.012.04-.02.06-.02.015 0 .047.004.075.032l1.182 1.182c.036.036.04.091.012.135l-.98 1.376c-.123.17-.13.4-.024.583.31.52.54 1.08.69 1.662a.526.526 0 0 0 .429.393l1.666.282a.103.103 0 0 1 .087.103v1.67h-.004z"/>
        <path d="M10.496 6.061a4.1 4.1 0 0 0-4.097 4.098 4.1 4.1 0 0 0 4.097 4.097 4.1 4.1 0 0 0 4.098-4.097 4.1 4.1 0 0 0-4.098-4.098zm0 7.124A3.029 3.029 0 0 1 7.47 10.16a3.029 3.029 0 0 1 3.026-3.027 3.029 3.029 0 0 1 3.027 3.027 3.029 3.029 0 0 1-3.027 3.026z"/>
    </g>
</svg>
