<svg xmlns="http://www.w3.org/2000/svg" width="103" height="103" viewBox="0 0 103 103">
    <defs>
        <radialGradient id="a" r="60.59%" fx="50%" fy="50%">
            <stop offset="0%" stop-color="#FFB705" stop-opacity=".385"/>
            <stop offset="100%" stop-color="#373737" stop-opacity="0"/>
        </radialGradient>
    </defs>
    <g fill="none" fill-rule="evenodd">
        <circle cx="51.233" cy="51.233" r="51.233" fill="url(#a)" fill-opacity=".81"/>
        <g fill="#FFB705" fill-rule="nonzero">
            <path d="M46.808 57.442a.467.467 0 0 0-.338.568 1.532 1.532 0 0 1-1.486 1.907 1.532 1.532 0 0 1-1.534-1.525 1.532 1.532 0 0 1 1.918-1.477.467.467 0 1 0 .234-.904 2.47 2.47 0 0 0-3.092 2.382 2.47 2.47 0 0 0 2.474 2.458 2.47 2.47 0 0 0 2.474-2.46c0-.207-.026-.414-.078-.614a.47.47 0 0 0-.572-.335zM57.83 57.442a.467.467 0 0 0-.338.568 1.532 1.532 0 0 1-1.486 1.907 1.532 1.532 0 0 1-1.534-1.525 1.532 1.532 0 0 1 1.918-1.477.467.467 0 1 0 .234-.904 2.47 2.47 0 0 0-3.092 2.382 2.47 2.47 0 0 0 2.474 2.458 2.47 2.47 0 0 0 2.473-2.46c0-.207-.026-.414-.078-.614a.47.47 0 0 0-.572-.335z"/>
            <path d="M68.901 61.168a.451.451 0 0 0 .015-.02l.011-.017a.523.523 0 0 0 .013-.02l.01-.02.01-.02.009-.023.007-.02a.417.417 0 0 0 .022-.112l.001-.024v-.01-.011a.425.425 0 0 0-.023-.137.447.447 0 0 0-.092-.158l-.008-.01-5.51-5.976a.472.472 0 0 0-.664-.028.465.465 0 0 0-.029.66l.43.466c0 .002-.002.003-.003.005l-.489.973-1.694-5.185a1.468 1.468 0 0 0-.961-.958l-3.544-1.113a.471.471 0 0 0-.003-.04l-.873-6.946h.97c.26 0 .47-.21.47-.467a.468.468 0 0 0-.47-.467h-7.044v-1.027c0-.807-.66-1.463-1.472-1.463-.811 0-1.471.656-1.471 1.463v1.052c-.864.136-1.55.83-1.649 1.72l-.276 2.465-3.675-1.154a.47.47 0 0 0-.2-.018 1.965 1.965 0 0 0-1.367-.548H37.47c-.26 0-.47.21-.47.467v11.635c0 .985.588 1.873 1.5 2.26l2.088.89a4.477 4.477 0 0 0 4.396 3.611 4.478 4.478 0 0 0 4.37-3.486h2.282a4.478 4.478 0 0 0 4.37 3.486 4.478 4.478 0 0 0 4.394-3.597l.479 1.435c.02.059.051.11.09.155a.966.966 0 0 0 .858.513h6.703c.016 0 .03 0 .046-.002l.016-.002.028-.005.02-.004.024-.006a.498.498 0 0 0 .174-.096l.01-.008.007-.007a.468.468 0 0 0 .046-.051zm-8.879-9.403l1.99 6.091-.653 1.3-2.2-6.592a.468.468 0 0 0-.305-.298l-15.518-4.872a1.953 1.953 0 0 0-.464-.726l-.777-.773 17.578 5.518a.534.534 0 0 1 .35.352zm-12.417-1.91l.018-.136 2.343.736h-1.833a.527.527 0 0 1-.528-.6zM43.45 48.41l.813.256-.147 1.319a.53.53 0 0 1-.53.47h-.136V48.41zm4.568-1.634l.322-2.398a.533.533 0 0 1 .527-.459h5.91l.652 5.183-7.41-2.326zm-.028-6.841c.294 0 .533.237.533.529v1.027h-1.065v-1.027c0-.292.239-.53.532-.53zm-2.186 3.404c.058-.521.5-.914 1.027-.914h7.758l.07.56h-5.792c-.734 0-1.361.546-1.458 1.27l-.3 2.236-1.602-.503.297-2.65zm-6.452 1.576c.276 0 .536.107.73.301l2.126 2.113c.195.194.303.452.303.726v6.63a4.446 4.446 0 0 0-1.999 3.5l-.571-.243a.462.462 0 0 0 .002-.047v-8.14c0-.656-.257-1.274-.724-1.738l-1.28-1.272v-1.83h1.413zm-1.413 11.168v-8.017l.616.611c.29.288.449.671.449 1.079v7.787l-.135-.058c-.565-.24-.93-.79-.93-1.402zm7.045 5.827c-1.95 0-3.538-1.578-3.538-3.517 0-1.94 1.587-3.517 3.538-3.517 1.951 0 3.539 1.578 3.539 3.517 0 1.94-1.588 3.517-3.539 3.517zm11.022 0c-1.951 0-3.538-1.578-3.538-3.517 0-1.94 1.587-3.517 3.538-3.517 1.95 0 3.538 1.578 3.538 3.517 0 1.94-1.587 3.517-3.538 3.517zm0-7.968c-2.469 0-4.478 1.997-4.478 4.451l.001.031h-2.068v-.031c0-2.454-2.008-4.451-4.477-4.451a4.48 4.48 0 0 0-1.534.27v-.83H53c.26 0 .47-.21.47-.467a.468.468 0 0 0-.47-.467h-9.55v-1.059h.137c.75 0 1.38-.559 1.462-1.3l.127-1.137 1.538.483-.04.298c-.056.418.072.84.351 1.157.28.318.683.5 1.108.5h4.807l3.371 1.058h-1.307c-.26 0-.47.209-.47.467s.21.467.47.467h3.437l.574 1.717a4.475 4.475 0 0 0-3.01-1.157zM61.8 60.4c-.01-.015-.005-.025-.002-.03l1.985-3.947 3.68 3.991h-5.637c-.006 0-.017 0-.026-.015z"/>
        </g>
        <circle cx="51.663" cy="50.663" r="27.663" stroke="#FFB705" stroke-opacity=".699" stroke-width=".5" opacity=".24"/>
        <circle cx="51.663" cy="50.663" r="35" stroke="#FFB705" stroke-opacity=".699" stroke-width=".1" opacity=".463"/>
    </g>
</svg>
