<svg xmlns="http://www.w3.org/2000/svg" width="61" height="61" viewBox="0 0 61 61">
    <path fill="#FFF" fill-rule="nonzero" d="M30.499.5C13.931.5.5 13.932.5 30.5c0 16.567 13.431 30 29.999 30 16.568 0 30-13.433 30-30 0-16.569-13.432-30-30-30zm-.102 40.931c0 .632-.37 1.208-.95 1.484a1.724 1.724 0 0 1-1.78-.184l-5.535-4.241c-.256.062-.523.099-.8.099h-5.548c-1.82 0-3.295-1.443-3.295-3.222v-9.396c0-1.78 1.475-3.222 3.295-3.222h5.548c.322 0 .632.048.928.132l5.408-4.145a1.72 1.72 0 0 1 1.78-.185c.58.276.949.852.949 1.484V41.43zm5.54-6.78l-1.85-1.81c.427-.57.682-1.27.682-2.029a3.39 3.39 0 0 0-.818-2.206l1.835-1.795a5.887 5.887 0 0 1 1.581 4.001c0 1.46-.538 2.799-1.43 3.839zm2.4 2.346a9.145 9.145 0 0 0 2.415-6.185c0-2.451-.977-4.682-2.568-6.346l1.837-1.796c2.06 2.125 3.329 4.99 3.329 8.142 0 3.073-1.204 5.876-3.174 7.983l-1.84-1.798zm6.251 6.06l-1.836-1.796c2.607-2.744 4.206-6.417 4.206-10.449 0-4.111-1.663-7.847-4.361-10.608l1.836-1.796c3.169 3.222 5.122 7.593 5.122 12.404 0 4.733-1.89 9.04-4.967 12.245z"/>
</svg>
