<svg xmlns="http://www.w3.org/2000/svg" width="30" height="30" viewBox="0 0 30 30">
    <path fill="#fff" fill-rule="nonzero" stroke="#fff" d="M29.065 14.942a14.201 14.201 0 0 0-1.204-5.459 14.24 14.24 0 0 0-7.865-7.51 14.161 14.161 0 0 0-5.414-.953 14.046 14.046 0 0 0-5.328 1.16A13.888 13.888 0 0 0 4.82 5.256a13.655 13.655 0 0 0-2.89 4.485 13.41 13.41 0 0 0-.927 5.2 13.307 13.307 0 0 0 1.136 5.115 13.329 13.329 0 0 0 7.375 7.025 13.25 13.25 0 0 0 5.068.885 13.13 13.13 0 0 0 4.98-1.093 12.98 12.98 0 0 0 4.14-2.88 12.752 12.752 0 0 0 2.695-4.195c.37-.94.62-1.92.751-2.914a1.803 1.803 0 0 0 1.91-1.943h.007zm-2.877 4.77a12.43 12.43 0 0 1-6.885 6.54 12.34 12.34 0 0 1-4.721.815 12.218 12.218 0 0 1-4.635-1.023A12.077 12.077 0 0 1 6.1 23.357a11.857 11.857 0 0 1-2.498-3.903 11.627 11.627 0 0 1-.788-4.512c.037-1.532.377-3.043.997-4.427a11.534 11.534 0 0 1 6.397-6.053 11.423 11.423 0 0 1 4.374-.748c1.485.037 2.948.363 4.287.955 1.34.591 2.553 1.446 3.554 2.492a10.957 10.957 0 0 1 2.302 3.613c.516 1.33.758 2.752.72 4.168h.006a1.802 1.802 0 0 0 1.608 1.935 12.316 12.316 0 0 1-.87 2.835z"/>
</svg>