<svg xmlns="http://www.w3.org/2000/svg" width="104" height="104" viewBox="0 0 104 104">
    <defs>
        <radialGradient id="a" r="60.59%" fx="50%" fy="50%">
            <stop offset="0%" stop-color="#FFB705" stop-opacity=".385"/>
            <stop offset="100%" stop-color="#373737" stop-opacity="0"/>
        </radialGradient>
    </defs>
    <g fill="none" fill-rule="evenodd">
        <circle cx="52" cy="52" r="51.233" fill="url(#a)" fill-opacity=".81"/>
        <g fill="#FFB705" fill-rule="nonzero">
            <path d="M60.226 53.58a3.617 3.617 0 0 1 3.613 3.622c0 2-1.618 3.621-3.613 3.621a3.617 3.617 0 0 1-3.613-3.621 3.621 3.621 0 0 1 3.613-3.621zm0 6.209a2.584 2.584 0 0 0 2.58-2.587 2.584 2.584 0 0 0-2.58-2.587 2.587 2.587 0 0 0 0 5.173zM48.355 57.202c0 2-1.618 3.621-3.613 3.621a3.617 3.617 0 0 1-3.613-3.621 3.621 3.621 0 0 1 3.613-3.621 3.617 3.617 0 0 1 3.613 3.621zm-3.613-2.587a2.587 2.587 0 0 0 0 5.173 2.584 2.584 0 0 0 2.58-2.586 2.584 2.584 0 0 0-2.58-2.587z"/>
            <path d="M37.516 40.13h18.858l.801-1.765a.516.516 0 0 1 .47-.303h3.097v1.034h-2.764l-3.285 7.243h3.984v-5.69c0-.286.232-.518.517-.518h5.16a2.587 2.587 0 0 1 2.581 2.586v3.673A2.59 2.59 0 0 1 69 48.925v4.139a.518.518 0 0 1-.151.365l-3.003 3.01c.036.253.055.508.057.763-.016 3.143-2.57 5.677-5.706 5.661a5.682 5.682 0 0 1-5.622-5.144h-4.18a5.681 5.681 0 0 1-6.166 5.156c-3.123-.283-5.426-3.05-5.144-6.18a5.69 5.69 0 0 1 3.35-4.688l2.335-3.119-7.357-1.526a.517.517 0 0 1-.413-.506v-6.208c0-.285.231-.517.516-.517zm21.161 7.243h-4.453l-.47 1.035h4.923v-1.035zm0 2.07h-5.392l-.331.73a.516.516 0 0 1-.575.293l-4.346-.901-1.492 2.244c.55.186 1.07.455 1.538.8l.943-.946a.515.515 0 0 1 .365-.151h6.194c.137 0 .268.054.365.151l.943.945a5.655 5.655 0 0 1 1.788-.876v-2.29zm7.226-6.208h-4.129v3.104h4.13v-3.104zm1.032 10.649l1.033-1.035v-3.407h-1.033v4.442zm-1.032 1.035v-5.994c0-.286.231-.517.516-.517h1.454a1.549 1.549 0 0 0-1.454-1.035h-5.16a.517.517 0 0 1-.517-.517v-4.139c0-.285.231-.517.516-.517h4.55a1.549 1.549 0 0 0-1.453-1.034H59.71v10.372a5.67 5.67 0 0 1 .516-.026 5.683 5.683 0 0 1 5.331 3.753l.346-.346zm-5.677 6.939a4.65 4.65 0 0 0 4.645-4.656 4.65 4.65 0 0 0-4.645-4.656 4.65 4.65 0 0 0-4.645 4.656 4.656 4.656 0 0 0 4.645 4.656zM53 56.685h1.575a5.674 5.674 0 0 1 1.536-3.393l-.744-.746H53v4.139zm-1.032 0v-4.139H49.6l-.744.746a5.674 5.674 0 0 1 1.536 3.393h1.575zm-11.871.517a4.668 4.668 0 0 0 4.644 4.69 4.667 4.667 0 0 0 4.68-4.654 4.668 4.668 0 0 0-4.644-4.69 4.659 4.659 0 0 0-4.68 4.655zm3.966-5.646a5.157 5.157 0 0 1 1.402.007l1.479-2.224-1.057-.219-1.824 2.436zm-6.03-5.121l14.152 2.934 2.782-6.134H38.032v3.2zm0-4.235h17.403l.47-1.034H38.031V42.2z"/>
            <path d="M62.806 48.408h-2.065v1.035h2.065z"/>
        </g>
        <circle cx="52.663" cy="51.663" r="27.663" opacity=".24"/>
        <circle cx="52.663" cy="51.663" r="35" opacity=".463"/>
    </g>
</svg>
