<?xml version="1.0" encoding="UTF-8"?>
<svg width="88px" height="69px" viewBox="0 0 88 69" version="1.1" xmlns="http://www.w3.org/2000/svg" xmlns:xlink="http://www.w3.org/1999/xlink">
    <!-- Generator: sketchtool 51.2 (57519) - http://www.bohemiancoding.com/sketch -->
    <title>414CE281-3808-498A-85DB-0C357D404D52</title>
    <desc>Created with sketchtool.</desc>
    <defs></defs>
    <g id="Flive" stroke="none" stroke-width="1" fill="none" fill-rule="evenodd">
        <g id="Flive---One-Equipment-Home" transform="translate(-737.000000, -346.000000)" fill="#DCB656" fill-rule="nonzero">
            <g id="Group-5-Copy-7" transform="translate(632.000000, 236.000000)">
                <g id="tipper" transform="translate(149.000000, 144.500000) scale(-1, 1) translate(-149.000000, -144.500000) translate(105.000000, 110.000000)">
                    <path d="M23.9106691,42.7145069 C18.4731016,42.7145069 14.0650995,47.1590819 14.0650995,52.6417643 C14.0650995,58.1244468 18.4731016,62.5690218 23.9106691,62.5690218 C29.3482366,62.5690218 33.7562387,58.1244468 33.7562387,52.6417643 C33.7500852,47.161741 29.3455993,42.7208887 23.9106691,42.7145069 Z M23.9106691,59.7326625 C20.0267677,59.7326625 16.8781194,56.5578901 16.8781194,52.6417643 C16.8781194,48.7256386 20.0267677,45.5508662 23.9106691,45.5508662 C27.7945705,45.5508662 30.9432188,48.7256386 30.9432188,52.6417643 C30.9386477,56.5561174 27.7926366,59.7280534 23.9106691,59.7326625 Z" id="Shape"></path>
                    <path d="M56.2603979,52.6417643 C56.2603979,58.1244468 60.6684001,62.5690218 66.1059675,62.5690218 C71.543535,62.5690218 75.9515371,58.1244468 75.9515371,52.6417643 C75.9453837,47.161741 71.5408978,42.7207115 66.1059675,42.7145069 C60.6684001,42.7145069 56.2603979,47.1592592 56.2603979,52.6417643 Z M66.1059675,45.5508662 C69.9898689,45.5508662 73.1385172,48.7256386 73.1385172,52.6417643 C73.1339461,56.5559401 69.987935,59.7280534 66.1059675,59.7326625 C62.2220661,59.7326625 59.0734178,56.5578901 59.0734178,52.6417643 C59.0734178,48.7256386 62.2220661,45.5508662 66.1059675,45.5508662 Z" id="Shape"></path>
                    <path d="M85.7971068,5.84183645 L34.4060463,5.84183645 L32.2231429,1.00017119 C31.9949366,0.494235602 31.4945707,0.169295194 30.9432188,0.169117921 L22.5041592,0.169117921 L22.5041592,3.00547719 L30.0374264,3.00547719 L38.9884557,22.8599921 L28.1301989,22.8599921 L28.1301989,7.26001609 C28.1301989,6.47682638 27.5004341,5.84183645 26.723689,5.84183645 L12.6585895,5.84183645 C8.77662207,5.84644554 5.63061095,9.01855883 5.62603979,12.9327346 L5.62603979,23.00181 C2.35361858,23.6798772 0.00369208861,26.582359 0,29.9508902 L0,41.2963273 C0,41.6724994 0.148386799,42.0330716 0.412107414,42.2989803 L8.59518229,50.5499494 C8.49619915,51.2429074 8.44398247,51.9417154 8.43905968,52.6417643 C8.48301312,61.2572056 15.4454132,68.2055767 23.9899611,68.1614359 C31.9284791,68.1203087 38.5480423,62.0276317 39.3105465,54.059944 L50.7032771,54.059944 C51.4717589,62.6406399 58.9935983,68.9685574 67.5036868,68.1936995 C76.0137752,67.4188416 82.2896226,59.8345942 81.5211407,51.2538983 C81.0162036,45.6159252 77.5217297,40.6960828 72.3902539,38.3989863 L66.030016,29.8501995 L86.0784088,25.6665695 C86.7327875,25.5318425 87.2030893,24.9516297 87.2036167,24.2781717 L87.2036167,7.26001609 C87.2036167,6.47682638 86.5738519,5.84183645 85.7971068,5.84183645 Z M28.1301989,25.6963513 L40.2669733,25.6963513 L41.5454908,28.5327106 L28.1301989,28.5327106 L28.1301989,25.6963513 Z M28.1301989,31.3690699 L42.8240084,31.3690699 L43.7283943,33.3743759 C44.0005539,33.9772795 44.6505373,34.3100199 45.2938398,34.1756473 L57.1366536,31.7051784 L61.2042803,37.8572417 C59.7033584,38.3661909 58.2892885,39.1052398 57.0114742,40.0483292 L54.4417805,37.457315 C54.1780599,37.1914063 53.8204547,37.0417884 53.447378,37.0417884 L36.5692586,37.0417884 C36.1961819,37.0417884 35.8385767,37.1914063 35.5748561,37.457315 L33.0051624,40.0483292 C31.5337772,38.9634218 29.8832378,38.1499185 28.1301989,37.6459329 L28.1301989,31.3690699 Z M8.43905968,14.3509143 L19.6911393,14.3509143 L19.6911393,22.8599921 L8.43905968,22.8599921 L8.43905968,14.3509143 Z M5.62603979,43.5455602 L2.81301989,40.7092009 L2.81301989,31.3690699 L5.62603979,31.3690699 L5.62603979,43.5455602 Z M8.43905968,46.3819194 L8.43905968,29.9508902 C8.43905968,29.1677005 7.80929485,28.5327106 7.03254973,28.5327106 L3.07181772,28.5327106 C3.66571655,26.8388723 5.25085326,25.7037968 7.03254973,25.6963513 L21.0976492,25.6963513 C21.8743943,25.6963513 22.5041592,25.0613614 22.5041592,24.2781717 L22.5041592,12.9327346 C22.5041592,12.1495449 21.8743943,11.514555 21.0976492,11.514555 L8.69785751,11.514555 C9.29175634,9.82071669 10.876893,8.68564116 12.6585895,8.67819572 L25.317179,8.67819572 L25.317179,37.1141155 C24.8530308,37.0715702 24.3860695,37.0417884 23.9106691,37.0417884 C17.4045057,37.0534884 11.5994875,41.1647911 9.38142135,47.3320998 L8.43905968,46.3819194 Z M23.9106691,65.405381 C16.9194356,65.405381 11.2520796,59.6908262 11.2520796,52.6417643 C11.2520796,45.5925252 16.9194356,39.8781477 23.9106691,39.8781477 C30.9019026,39.8781477 36.5692586,45.5925252 36.5692586,52.6417643 C36.5615228,59.6878126 30.8985621,65.3975811 23.9106691,65.405381 Z M43.6018084,51.2235847 L39.3105465,51.2235847 C38.9940818,47.736281 37.5186528,44.4588679 35.1233664,41.9231627 L37.1515537,39.8781477 L43.6018084,39.8781477 L43.6018084,51.2235847 Z M46.4148282,51.2235847 L46.4148282,39.8781477 L52.8650829,39.8781477 L54.8932702,41.9231627 C52.4979838,44.4588679 51.0225548,47.736281 50.7060901,51.2235847 L46.4148282,51.2235847 Z M78.764557,52.6417643 C78.7914565,59.716708 73.1251554,65.4741628 66.1084289,65.5012854 C59.0917024,65.5284081 53.3816236,59.8150942 53.3547241,52.7401506 C53.3278246,45.6652069 58.9941258,39.9077522 66.0108523,39.8806295 C67.5817481,39.8746022 69.1399853,40.1623154 70.6067993,40.7290554 C75.5109479,42.6127525 78.7552389,47.3503589 78.764557,52.6417643 Z M67.9555281,37.1637518 C66.6877352,36.9955203 65.4028883,37.0022566 64.1368536,37.1836063 L60.1057961,31.0854339 L62.9863284,30.4855439 L67.9555281,37.1637518 Z M84.3905968,23.1237735 L45.8240941,31.1676883 L38.2415989,14.3509143 L84.3905968,14.3509143 L84.3905968,23.1237735 Z M84.3905968,11.514555 L36.9630814,11.514555 L35.6845639,8.67819572 L84.3905968,8.67819572 L84.3905968,11.514555 Z" id="Shape"></path>
                    <rect id="Rectangle-path" x="16.8781194" y="28.5327106" width="5.62603979" height="2.83635927"></rect>
                </g>
            </g>
        </g>
    </g>
</svg>