<svg xmlns="http://www.w3.org/2000/svg" width="103" height="103" viewBox="0 0 103 103">
    <defs>
        <radialGradient id="a" r="60.59%" fx="50%" fy="50%">
            <stop offset="0%" stop-color="#FFB705" stop-opacity=".385"/>
            <stop offset="100%" stop-color="#373737" stop-opacity="0"/>
        </radialGradient>
    </defs>
    <g fill="none" fill-rule="evenodd">
        <circle cx="51.233" cy="51.233" r="51.233" fill="url(#a)" fill-opacity=".81"/>
        <g fill="#FFB705" fill-rule="nonzero" stroke="#FFC426" stroke-width=".5">
            <path d="M66.067 53.98l-.002-.021-.01-.088a1.535 1.535 0 0 0-.1-.404c-.07-.123-.131-.25-.23-.348-.085-.11-.2-.188-.31-.268-.124-.06-.244-.125-.378-.148a.834.834 0 0 0-.264-.035 12.703 12.703 0 0 0-.023-.229.787.787 0 0 0 .248-1.48v-7.892h1.82l-1.425-3.037H43.587v-.25c0-.796-.645-1.443-1.439-1.443h-3.527c-.793 0-1.439.647-1.439 1.443v3.538c0 .795.646 1.443 1.44 1.443h3.527c.793 0 1.439-.648 1.439-1.443v-.251h20.697v7.892a.788.788 0 0 0 .248 1.48c-.013.125-.028.25-.038.375l-.009.105.156.042c.1.027.203.03.294.077.097.028.177.092.26.142.068.07.15.126.2.21.066.073.098.167.14.25.016.084.056.145.058.279l.008.087v.01l-.001.007-.005.036-.016.14c-.034.088-.044.184-.097.264-.035.09-.103.156-.16.233-.075.058-.139.13-.225.173-.084.06-.16.072-.245.11l-.174.025-.043.008h-.02l-.073-.002c-.101.007-.196-.025-.296-.045-.09-.043-.193-.07-.275-.136-.093-.052-.16-.134-.242-.207-.06-.088-.133-.175-.173-.277-.058-.096-.076-.22-.11-.333-.004.12-.031.235.002.36.011.13.067.242.116.361.069.106.135.222.235.306.09.098.206.164.32.233.124.047.25.104.386.115l.1.015.026.004h.007l.001.002.022-.002h.013l.044-.002.176-.01c.136-.032.297-.065.411-.134.13-.054.235-.149.343-.237.09-.107.188-.209.248-.337.077-.12.11-.259.148-.394l.02-.21.003-.052.001-.013v-.003l-.001-.027v-.006zM43.112 42.59v.727a.966.966 0 0 1-.963.966H38.62a.965.965 0 0 1-.963-.966V39.78c0-.533.433-.966.963-.966h3.528c.531 0 .963.433.963.966v.727h21.979l.977 2.083H43.112zm22.491 11.445v-.003.003z"/>
            <path d="M56.802 60.37h-3.744L51.94 43.425h-5.218L45.607 60.37h-3.745a1.53 1.53 0 0 0-1.526 1.53v1.657h17.992V61.9a1.53 1.53 0 0 0-1.526-1.53zm1.05 2.71h-17.04V61.9c0-.58.47-1.054 1.05-1.054h4.19l1.117-16.944h4.326l1.117 16.944h4.19c.58 0 1.05.473 1.05 1.054v1.18zM51.556 37.11h-4.448l-.17 2.563h4.787l-.169-2.563zm-4.108 2.085l.106-1.608h3.558l.106 1.608h-3.77z"/>
        </g>
        <circle cx="51.663" cy="50.663" r="27.663" opacity=".24"/>
        <circle cx="51.663" cy="50.663" r="35" opacity=".463"/>
    </g>
</svg>
