<svg xmlns="http://www.w3.org/2000/svg" width="103" height="103" viewBox="0 0 103 103">
    <defs>
        <radialGradient id="a" r="60.59%" fx="50%" fy="50%">
            <stop offset="0%" stop-color="#FFB705" stop-opacity=".385"/>
            <stop offset="100%" stop-color="#373737" stop-opacity="0"/>
        </radialGradient>
    </defs>
    <g fill="none" fill-rule="evenodd">
        <circle cx="51.233" cy="51.233" r="51.233" fill="url(#a)" fill-opacity=".81"/>
        <path fill="#FFB705" fill-rule="nonzero" stroke="#FFB705" stroke-width=".3" d="M44.856 49.086c-3.762 0-6.856 3.052-6.856 6.857 0 3.762 3.052 6.856 6.856 6.856 3.847 0 6.857-2.884 6.857-6.564 0-3.888-3.136-7.149-6.857-7.149zm0 12.835a6.022 6.022 0 0 1-6.02-6.02 5.995 5.995 0 0 1 6.02-6.02c3.261 0 6.02 2.884 6.02 6.27 0 3.304-2.591 5.77-6.02 5.77zm0-9.323a3.31 3.31 0 0 0-3.302 3.303 3.31 3.31 0 0 0 3.302 3.303c1.84 0 3.303-1.422 3.303-3.178 0-1.84-1.505-3.428-3.303-3.428zm0 5.811a2.471 2.471 0 0 1-2.466-2.466 2.471 2.471 0 0 1 2.466-2.467c1.338 0 2.467 1.213 2.467 2.592 0 1.296-1.045 2.341-2.467 2.341zm15.72-2.424a3.265 3.265 0 0 0-3.26 3.26 3.265 3.265 0 0 0 3.26 3.262 3.265 3.265 0 0 0 3.261-3.261 3.265 3.265 0 0 0-3.26-3.261zm0 5.644a2.427 2.427 0 0 1-2.425-2.425 2.427 2.427 0 0 1 2.425-2.425 2.427 2.427 0 0 1 2.425 2.425 2.427 2.427 0 0 1-2.425 2.425zm0-1.924c-.25 0-.418-.209-.418-.46 0-.25.21-.46.418-.46.21 0 .418.21.418.46.042.251-.167.46-.418.46zM49.121 45.073c.042.209-.084.46-.293.502h-.125c-.167 0-.377-.126-.418-.293l-1.087-4.265a.615.615 0 0 0-.586-.46h-2.675a.572.572 0 0 0-.586.586v1.421c0 .251-.167.418-.418.418-.25 0-.418-.167-.418-.418v-1.421a1.41 1.41 0 0 1 1.422-1.422h2.675c.67 0 1.255.46 1.422 1.087l1.087 4.265zm16.556 1.254c-.293-.376-.711-.543-1.171-.543h-6.815v-2.342l.795-.669c.167-.167.209-.418.042-.585-.168-.167-.419-.209-.586-.042l-.92.795c-.041 0-.041.041-.041.083l-.042.042V45.742H52.59c-.335 0-.585-.21-.67-.586l-1.797-6.354a1.838 1.838 0 0 0-1.798-1.464h-6.981c-.837 0-1.505.67-1.505 1.506v10.2c0 .251.167.419.418.419.125 0 .25-.084.334-.168.042 0 .084-.041.125-.041 2.174-1.38 4.892-1.59 7.275-.628a7.937 7.937 0 0 1 4.724 5.854.407.407 0 0 0 .418.334h10.369a1.48 1.48 0 0 0 1.463-1.212l1.003-6.02c.084-.46 0-.92-.292-1.255zm-.502 1.087l-1.003 6.062c-.084.293-.335.544-.67.544H53.47c-.627-2.76-2.55-5.017-5.184-6.104a8.696 8.696 0 0 0-7.61.418v-9.49a.66.66 0 0 1 .67-.67h6.981c.46 0 .878.335.962.837l1.798 6.354a1.48 1.48 0 0 0 1.463 1.213h11.915c.21 0 .376.084.544.25a.62.62 0 0 1 .167.586zm-1.672 1.003c0 .251-.168.419-.418.419h-2.718c-.25 0-.418-.168-.418-.419 0-.25.167-.418.418-.418h2.718c.25 0 .418.168.418.418zm-.418 1.63c0 .252-.168.419-.419.419h-2.55c-.25 0-.418-.167-.418-.418 0-.25.167-.418.418-.418h2.55c.251 0 .419.209.419.418z"/>
        <circle cx="51.663" cy="50.663" r="27.663" opacity=".24"/>
        <circle cx="51.663" cy="50.663" r="35" opacity=".463"/>
    </g>
</svg>
