<svg xmlns="http://www.w3.org/2000/svg" width="103" height="103" viewBox="0 0 103 103">
    <defs>
        <radialGradient id="a" r="60.59%" fx="50%" fy="50%">
            <stop offset="0%" stop-color="#FFB705" stop-opacity=".385"/>
            <stop offset="100%" stop-color="#373737" stop-opacity="0"/>
        </radialGradient>
    </defs>
    <g fill="none" fill-rule="evenodd">
        <circle cx="51.233" cy="51.233" r="51.233" fill="url(#a)" fill-opacity=".81"/>
        <g fill="#FFB705" fill-rule="nonzero">
            <path d="M68.15 52.333H47.183V42.204c0-.425-.283-.708-.708-.708h-6.517c-1.204 0-2.266.85-2.55 1.912l-2.337 6.446C35 50.067 35 57.008 35 57.221c0 .425.283.708.708.708h1.134c.354 1.417 1.558 2.408 3.045 2.408 1.488 0 2.692-1.062 3.046-2.408h6.092c.354 1.417 1.558 2.408 3.046 2.408 1.487 0 2.691-1.062 3.046-2.408h2.691c.355 1.417 1.559 2.408 3.046 2.408 1.488 0 2.692-1.062 3.046-2.408h4.392c.425 0 .708-.283.708-.708v-4.18c0-.354-.283-.708-.85-.708zm-22.383-9.42v6.516h-1.134v-6.517h1.134zm-7.084.92c.142-.566.638-.92 1.205-.92h3.329v6.516H36.7l1.983-5.596zm-2.266 7.013h9.35v5.667h-2.834c-.354-1.417-1.558-2.409-3.045-2.409-1.488 0-2.692 1.063-3.046 2.409h-.425v-5.667zm3.541 8.075c-.92 0-1.7-.78-1.7-1.7 0-.921.78-1.7 1.7-1.7.921 0 1.7.779 1.7 1.7 0 .92-.779 1.7-1.7 1.7zm12.184 0c-.921 0-1.7-.78-1.7-1.7 0-.921.779-1.7 1.7-1.7.92 0 1.7.779 1.7 1.7 0 .92-.78 1.7-1.7 1.7zm8.783 0c-.92 0-1.7-.78-1.7-1.7 0-.921.78-1.7 1.7-1.7.92 0 1.7.779 1.7 1.7 0 .92-.78 1.7-1.7 1.7zm6.658-2.408h-3.612c-.354-1.417-1.558-2.409-3.046-2.409-1.487 0-2.692 1.063-3.046 2.409h-2.691c-.355-1.417-1.559-2.409-3.046-2.409-1.488 0-2.692 1.063-3.046 2.409h-1.842V53.75h20.33v2.762z"/>
            <path d="M43.5 53.112h.85c.425 0 .708-.283.708-.708s-.283-.708-.708-.708h-.85c-.425 0-.708.283-.708.708a.71.71 0 0 0 .708.708z"/>
        </g>
        <circle cx="51.663" cy="50.663" r="27.663" opacity=".24"/>
        <circle cx="51.663" cy="50.663" r="35" opacity=".463"/>
    </g>
</svg>
