<svg xmlns="http://www.w3.org/2000/svg" width="60" height="60" viewBox="0 0 60 60">
    <defs>
        <radialGradient id="a" cx="48.914%" cy="50.674%" r="76.795%" fx="48.914%" fy="50.674%" gradientTransform="matrix(-.8497 .52727 -.52728 -.84969 1.172 .68)">
            <stop offset="0%" stop-color="#F33333"/>
            <stop offset="100%" stop-color="#F00"/>
        </radialGradient>
    </defs>
    <path fill="url(#a)" fill-rule="nonzero" d="M35.999 6c16.568 0 30 13.431 30 30 0 16.567-13.432 30-30 30C19.431 66 6 52.567 6 36 6 19.431 19.431 6 35.999 6zm-.5 31c.543 0 1.012-.212 1.407-.636.396-.424.594-.926.594-1.507V24.143c0-.58-.198-1.083-.594-1.507-.395-.424-.864-.636-1.406-.636-.542 0-1.01.212-1.406.636a2.134 2.134 0 0 0-.594 1.507v10.714c0 .58.198 1.083.594 1.507.396.424.864.636 1.406.636zm11.691-6.158a12.301 12.301 0 0 0-3.686-4.413 2.015 2.015 0 0 0-1.546-.408 1.928 1.928 0 0 0-1.368.817c-.347.457-.48.972-.398 1.544.08.572.35 1.033.805 1.381a8.338 8.338 0 0 1 2.466 2.959c.58 1.165.87 2.408.87 3.726 0 1.133-.22 2.214-.659 3.244a8.43 8.43 0 0 1-1.782 2.672 8.397 8.397 0 0 1-2.66 1.79 8.087 8.087 0 0 1-3.232.662 8.087 8.087 0 0 1-3.23-.662 8.398 8.398 0 0 1-2.662-1.79 8.44 8.44 0 0 1-1.782-2.672 8.182 8.182 0 0 1-.659-3.244c0-1.318.29-2.56.87-3.726a8.34 8.34 0 0 1 2.466-2.959c.456-.349.725-.809.806-1.381a1.995 1.995 0 0 0-.399-1.544 1.922 1.922 0 0 0-1.359-.817 2.052 2.052 0 0 0-1.554.408 12.3 12.3 0 0 0-3.687 4.413 12.408 12.408 0 0 0-1.31 5.606c0 1.7.331 3.323.993 4.87.662 1.548 1.551 2.882 2.67 4.005 1.117 1.122 2.446 2.015 3.987 2.68 1.54.664 3.158.997 4.85.997 1.693 0 3.31-.333 4.85-.998 1.542-.664 2.87-1.557 3.988-2.68 1.118-1.122 2.007-2.456 2.67-4.004.661-1.547.992-3.17.992-4.87 0-1.983-.436-3.852-1.31-5.606z" transform="translate(-6 -6)"/>
</svg>
