<svg xmlns="http://www.w3.org/2000/svg" width="16" height="17" viewBox="0 0 16 17">
    <g fill="#FFF" fill-rule="nonzero">
        <path stroke="#FFF" stroke-width=".4" d="M11.181 2.237a.664.664 0 0 0-.87.336.65.65 0 0 0 .341.86c2.151.928 3.571 3.029 3.571 5.386 0 3.245-2.664 5.875-5.95 5.875-3.287 0-5.95-2.63-5.95-5.875 0-2.357 1.419-4.458 3.57-5.386a.65.65 0 0 0 .34-.86.664.664 0 0 0-.87-.336C2.735 3.37 1 5.939 1 8.819 1 12.785 4.256 16 8.273 16c4.016 0 7.272-3.215 7.272-7.18 0-2.882-1.735-5.45-4.364-6.583z"/>
        <path d="M8.273 7.273c.401 0 .727-.296.727-.661V.662C9 .295 8.674 0 8.273 0c-.402 0-.728.296-.728.661v5.95c0 .366.326.662.728.662z"/>
    </g>
</svg>
