<svg xmlns="http://www.w3.org/2000/svg" width="60" height="60" viewBox="0 0 60 60">
	<defs>
        <radialGradient id="a" cx="48.914%" cy="50.674%" r="76.795%" fx="48.914%" fy="50.674%" gradientTransform="matrix(-.8497 .52727 -.52728 -.84969 1.172 .68)">
            <stop offset="0%" stop-color="#F33333"/>
            <stop offset="100%" stop-color="#F00"/>
        </radialGradient>
    </defs>
    <path fill="url(#a)" fill-rule="nonzero" d="M29.999 0c16.568 0 30 13.431 30 30 0 16.567-13.432 30-30 30C13.431 60 0 46.567 0 30 0 13.431 13.431 0 29.999 0zm-17.14 29.5c0 5.153 4.192 9.346 9.346 9.346 3.521.001 6.635-1.983 8.225-5.098l3.061-.02c.225 0 .441-.09.6-.249l1.1-1.098 1.118 1.118a.852.852 0 0 0 1.266-.073l.807-1.019 1.384 1.146c.315.26.769.26 1.083 0l1.384-1.146.807 1.018a.85.85 0 0 0 .666.323h1.7c.225 0 .441-.089.6-.249l3.4-3.398a.85.85 0 0 0 0-1.202l-3.4-3.398a.849.849 0 0 0-.6-.25H30.52a9.343 9.343 0 0 0-8.316-5.097c-5.154 0-9.346 4.193-9.346 9.346zm11.99 2.338a3.435 3.435 0 0 1-4.846 0 3.42 3.42 0 0 1 0-4.837 3.435 3.435 0 0 1 4.847 0 3.42 3.42 0 0 1 0 4.837z"/>
</svg>
