<svg xmlns="http://www.w3.org/2000/svg" width="103" height="103" viewBox="0 0 103 103">
    <defs>
        <radialGradient id="a" r="60.59%" fx="50%" fy="50%">
            <stop offset="0%" stop-color="#FFB705" stop-opacity=".385"/>
            <stop offset="100%" stop-color="#373737" stop-opacity="0"/>
        </radialGradient>
    </defs>
    <g fill="none" fill-rule="evenodd">
        <circle cx="51.233" cy="51.233" r="51.233" fill="url(#a)" fill-opacity=".81"/>
        <g fill="#FFB705" fill-rule="nonzero">
            <path d="M41.98 60.83a.468.468 0 0 0-.331.139.48.48 0 0 0 0 .672.468.468 0 0 0 .663 0 .48.48 0 0 0 0-.672.468.468 0 0 0-.332-.14zM54.173 60.969a.48.48 0 0 0 0 .672.468.468 0 0 0 .664 0 .48.48 0 0 0 0-.672.468.468 0 0 0-.664 0zM53.002 60.83h-9.519c-.259 0-.47.212-.47.475 0 .262.211.475.47.475h9.519c.26 0 .47-.213.47-.475a.473.473 0 0 0-.47-.476z"/>
            <path d="M66.998 50.254v-9.352A1.491 1.491 0 0 0 68 39.49c0-.821-.66-1.49-1.472-1.49a1.48 1.48 0 0 0-1.455 1.273l-.405.396-24.476 9.013a.468.468 0 0 0-.064.03 1.463 1.463 0 0 0-1.153-.566c-.812 0-1.472.669-1.472 1.49 0 .656.42 1.214 1.002 1.413v4.707H36.97c-.536 0-.971.44-.971.983v2.537c0 .542.435.982.97.982h3.331a2.004 2.004 0 0 0-.293 1.047c0 1.101.885 1.997 1.972 1.997h12.525c1.088 0 1.972-.896 1.972-1.997 0-1.102-.884-1.998-1.972-1.998H52.97v-2.892L66.059 41.74v8.513a1.491 1.491 0 0 0-1.002 1.412v.507c0 .656.42 1.213 1.002 1.412v.617c0 .263.21.476.47.476.293 0 .532.242.532.539a.536.536 0 0 1-.533.539.536.536 0 0 1-.532-.539.473.473 0 0 0-.47-.476c-.259 0-.47.213-.47.476 0 .822.66 1.49 1.472 1.49.812 0 1.472-.668 1.472-1.49 0-.656-.42-1.214-1.002-1.412v-.22A1.491 1.491 0 0 0 68 52.173v-.507c0-.656-.42-1.213-1.002-1.412zm-18.469 5.605a1.447 1.447 0 0 0-.537-.103h-.532V54.71c0-.018.014-.032.031-.032h1.033v1.038c0 .048.002.096.005.143zm.935-1.181h1.033c.846 0 1.534.697 1.534 1.554v1.398l-1.454-.42a1.558 1.558 0 0 1-1.113-1.494v-1.038zm1.994-.755l13.719-13.429.134-.05a.468.468 0 0 0 .064-.03c.093.119.203.223.327.308l-12.94 14.506a2.503 2.503 0 0 0-1.304-1.305zm15.07-14.972c.294 0 .533.242.533.54a.536.536 0 0 1-.533.538.536.536 0 0 1-.532-.539c0-.297.239-.539.532-.539zM40.513 49.576l22.497-8.284-12.703 12.435h-2.816c-.535 0-.97.44-.97.983v1.046h-.84l-5.372-5.441-.017-.015c.098-.2.154-.425.154-.663v-.042a.462.462 0 0 0 .067-.019zm-1.538-.478c.293 0 .532.241.532.539a.536.536 0 0 1-.532.539.536.536 0 0 1-.533-.54c0-.297.239-.538.533-.538zm.47 1.95a1.45 1.45 0 0 0 .184-.077l.015.016 4.71 4.769h-4.91v-4.707zm-2.506 8.228v-1.047h1.034c.259 0 .47-.213.47-.475a.473.473 0 0 0-.47-.476h-1.034v-.54c0-.017.014-.03.032-.03h11.021c.294 0 .532.241.532.538v.032h-8.547c-.26 0-.47.213-.47.476 0 .262.21.475.47.475h8.547v1.078H36.97a.032.032 0 0 1-.03-.031zm18.6 2.029c0 .577-.464 1.046-1.034 1.046H41.98c-.57 0-1.033-.47-1.033-1.046 0-.577.464-1.047 1.033-1.047H54.504c.57 0 1.034.47 1.034 1.047zm-6.075-1.998v-1.63c.248.201.537.355.854.447l1.713.496v.687h-2.567zm17.597-7.134a.536.536 0 0 1-.533.54.536.536 0 0 1-.532-.54v-.507c0-.297.239-.54.532-.54.294 0 .533.243.533.54v.507z"/>
        </g>
        <circle cx="51.663" cy="50.663" r="27.663" opacity=".24"/>
        <circle cx="51.663" cy="50.663" r="35" opacity=".463"/>
    </g>
</svg>
